<svg version="1.1" id="Calque_1" xmlns="http://www.w3.org/2000/svg" xmlns:xlink="http://www.w3.org/1999/xlink" x="0px" y="0px"
     viewBox="0 0 65 95.9" style="enable-background:new 0 0 65 95.9;" xml:space="preserve">
<g>
    <path d="M65,76.6c0,0.1,0,0.2,0,0.4c-4.5,4.2-9,8.5-13.4,12.7c-2.1,2-4.2,4.2-6.3,6.3c-0.1,0-0.2,0-0.4,0c-0.6-0.7-1.3-1.5-1.9-2.2
        C32,81.9,20.9,70.1,9.8,58.4C6.6,54.9,3.3,51.5,0,48.1c0-0.1,0-0.2,0-0.4c0.5-0.5,1-0.9,1.5-1.4c9.9-10.5,19.8-21,29.6-31.5
        C35.8,10,40.4,5,45,0c0.1,0,0.2,0,0.4,0c0,0.1,0,0.2,0.1,0.3C51.9,6.5,58.5,12.8,65,19c0,0.1,0,0.2,0,0.4c-0.3,0.2-0.6,0.5-0.9,0.8
        C58.5,25.9,53,31.8,47.5,37.7c-3.2,3.4-6.4,6.8-9.6,10.2c0.4,0.5,0.7,0.9,1.1,1.3c6,6.3,11.9,12.7,17.9,19
        C59.5,71,62.3,73.8,65,76.6z" stroke="black" stroke-width="2" fill="white"/>
</g>
</svg>
