<?xml version="1.0" encoding="utf-8"?>
<!-- Generator: Adobe Illustrator 23.0.3, SVG Export Plug-In . SVG Version: 6.00 Build 0)  -->
<svg version="1.1" id="Calque_1" xmlns="http://www.w3.org/2000/svg" xmlns:xlink="http://www.w3.org/1999/xlink" x="0px" y="0px"
	 viewBox="0 0 3549 375" style="enable-background:new 0 0 3549 375;" xml:space="preserve">
<g>
	<path d="M2741,340c-9.1-71.4-18.2-142.3-27.2-213.1c-0.6-0.1-1.2-0.2-1.7-0.2c-21.8,72.8-52.8,142.2-79.3,213.2
		c-24.4,0-48.4,0-73,0c1.5-4.1,2.9-7.9,4.4-11.7c37.4-95.6,74.8-191.1,112-286.7c1.4-3.6,3-5.1,7.1-5c32.3,0.2,64.7,0.1,97,0.1
		c1.6,0,3.3,0,5.2,0c9.3,70.3,18.6,140.2,27.9,210.1c0.4,0,0.8,0.1,1.2,0.1c2.2-6.5,4.1-13,6.6-19.4c23-60.5,46.1-120.9,69.2-181.3
		c3.6-9.5,3.8-9.5,13.9-9.5c19,0,38,0,57,0c1.8,0,3.6,0,6.2,0c-3.6,9.2-6.9,17.7-10.2,26.1c-35.4,90.6-70.9,181.2-106.2,271.9
		c-1.6,4.1-3.4,5.7-8.1,5.7c-32-0.3-64-0.1-96-0.1C2745.2,340,2743.4,340,2741,340z M2566.9,335c20.4,0,39.9,0.1,59.4-0.2
		c1.5,0,3.7-2,4.3-3.5c25.8-67.8,55-134.2,76.1-203.7c1-3.4,2.5-6.3,6.8-5.9c4.2,0.4,5.2,3.4,5.6,7c2,16.5,4.2,33,6.3,49.5
		c5.2,40.8,10.4,81.6,15.6,122.4c1.4,11.3,2.9,22.7,4.4,34.1c1.1,0.1,1.7,0.3,2.4,0.3c31.5,0,63,0,94.5,0.1c3.5,0,4-2,4.9-4.4
		c32.4-82.9,64.8-165.7,97.2-248.6c5.2-13.3,10.4-26.6,15.6-40c-0.9-0.3-1.3-0.6-1.8-0.6c-19.3,0-38.7-0.1-58,0.1
		c-1.4,0-3.3,1.9-3.9,3.3c-3.6,8.7-7,17.6-10.4,26.5c-20,52.7-40.1,105.4-60.1,158.1c-2.2,5.8-3.9,11.7-5.8,17.5
		c-1,3.1-2.7,5.3-6.4,5c-3.7-0.3-4.4-3-5-5.9c-0.2-1-0.3-2-0.4-3c-2.8-21.3-5.6-42.6-8.4-63.9c-5.9-44.1-11.8-88.1-17.5-132.2
		c-0.6-4.4-1.9-5.8-6.4-5.8c-29.5,0.2-59,0.2-88.5,0c-4.4,0-6.3,1.4-7.8,5.4c-31.5,80.9-63.1,161.7-94.7,242.6
		C2578.9,304.4,2573,319.4,2566.9,335z"/>
	<path d="M3172.8,339.8c-30.8,0-61.4,0-92.5,0c-4.8-38.3-9.7-76.5-14.6-115.5c-7.6,3.6-14.4,7.5-21.6,10.3
		c-6.4,2.4-9.4,6.8-11.7,12.9c-11.2,29.4-22.9,58.5-34.1,87.9c-1.3,3.5-2.8,4.8-6.7,4.8c-25.7-0.2-51.3-0.1-77.8-0.1
		c0.7-2,1.3-3.6,1.9-5.2c38.3-98,76.7-196.1,115-294.1c1-2.5,1.8-4.3,5.1-4.2c25.5,0.1,51,0.1,76.5,0.1c0.6,0,1.3,0.2,2.6,0.4
		c-16.7,42.8-33.3,85.2-50.4,128.9c1.5-1,2.1-1.3,2.6-1.8c42.2-39.5,84.6-78.7,126.4-118.6c7.1-6.7,14-9.5,23.7-9.3
		c23.8,0.7,47.6,0.2,71.5,0.2c1.1,0,2.3,0.1,4.7,0.2c-3.9,3.6-7.1,6.6-10.3,9.5c-45,41.1-89.9,82.2-135,123.3
		c-2.6,2.3-3.2,4.5-2.6,7.8c9.2,53.6,18.4,107.2,27.5,160.9C3172.9,338.5,3172.8,338.9,3172.8,339.8z M3279.8,42.3
		c-1.1-0.5-1.4-0.7-1.7-0.7c-23.5,0-47-0.1-70.5,0c-1.6,0-3.5,1.1-4.7,2.2c-26.5,24.5-53.1,49.1-79.5,73.8
		c-18.6,17.4-36.9,35.1-55.6,52.5c-1.4,1.3-4.8,1.7-6.6,0.9c-1.2-0.5-1.7-3.8-1.6-5.8c0-1.9,1.2-3.8,1.9-5.6
		c14.7-37.6,29.5-75.3,44.2-112.9c0.6-1.5,0.9-3,1.6-5.1c-2.6,0-4.4,0-6.2,0c-20,0-40,0.2-60-0.1c-4.5-0.1-6.3,1.5-7.8,5.5
		c-33.3,85.4-66.7,170.7-100,256.1c-4.1,10.5-8.1,21-12.4,32c2.2,0,3.8,0,5.5,0c20.5,0,41-0.1,61.5,0.1c4.1,0.1,5.7-1.3,7.1-5
		c11.6-30.1,23.3-60.2,35.2-90.2c1-2.4,2.9-5.1,5.1-6.3c8.5-4.6,17.2-8.7,26-12.7c5.7-2.7,8.9-0.8,9.7,5.5
		c3.4,26.9,6.7,53.9,10.1,80.8c1.2,9.2,2.4,18.4,3.6,27.4c27.8,0,55,0,82.2,0c0-0.9,0.1-1.4,0-1.9c-8.8-51.7-17.5-103.4-26.5-155
		c-0.9-5,0.2-8.4,4-11.8c36.8-33.3,73.4-66.8,110.1-100.3C3262.8,58,3271.1,50.4,3279.8,42.3z"/>
	<path d="M23.6,340c10.9-10.5,20.8-20.1,30.7-29.6c34.1-32.8,68.2-65.6,102.3-98.4c8-7.7,16-15.6,24.2-23.1c3.2-2.9,4-5.5,2.9-9.9
		c-11.5-45.8-22.8-91.7-34.1-137.5c-0.3-1.4-0.5-2.8-0.9-4.7c2-0.1,3.6-0.3,5.2-0.3c26.8,0,53.7,0.1,80.5-0.1c3.9,0,5.4,1.1,6.1,5
		c5.4,29.1,11.1,58.2,16.9,88c1.3-1,2.3-1.7,3.1-2.5c27-28.3,54.1-56.6,80.9-85c3.5-3.7,7-5.6,12.4-5.5c26.7,0.3,53.3,0.1,80,0.1
		c1.8,0,3.6,0,6.6,0c-1.7,1.9-2.7,3.1-3.8,4.2C408,69,379.3,97.3,350.6,125.6c-20.9,20.6-41.6,41.3-62.6,61.7
		c-3.1,3-3.5,5.5-2.2,9.5c14.1,45.9,28,91.9,42,137.9c0.5,1.6,0.8,3.2,1.3,5c-31.7,0-63.2,0-95,0c-7.2-31.1-14.5-62.1-21.9-94.1
		c-5.7,5.6-10.9,10.5-16,15.6c-25.3,25.1-50.6,50.2-75.9,75.4c-2.4,2.4-4.8,3.4-8.3,3.4C83,339.9,54,340,23.6,340z M427.6,42.8
		c-0.2-0.4-0.4-0.9-0.7-1.3c-1.6,0-3.3,0-4.9,0c-22.7,0-45.3,0.1-68-0.1c-3.9,0-6.5,1.3-9,4c-27.1,28.7-54.3,57.3-81.7,85.7
		c-1.7,1.7-5,2.9-7.3,2.5c-1.5-0.2-3.3-3.5-3.7-5.7c-2.9-14.2-5.5-28.4-8.3-42.6c-2.8-14.5-5.6-29-8.5-43.6c-27,0-53.6,0-80.6,0
		c0.4,2.1,0.7,3.9,1.1,5.6c10.8,43.6,21.4,87.2,32.5,130.8c1.6,6.3,0.2,10.2-4.3,14.4c-21.7,20.5-43.1,41.2-64.6,61.9
		c-24.6,23.7-49.1,47.4-73.7,71.1c-3,2.9-6.1,5.8-9.6,9c1.3,0.2,1.8,0.4,2.2,0.4c24.5,0,49,0.1,73.5-0.1c1.8,0,4.1-1.3,5.5-2.6
		c11.6-11.3,23-22.7,34.5-34.1c18.2-18.1,36.4-36.2,54.7-54.2c1.7-1.6,4.8-3,6.9-2.6c1.6,0.3,3.3,3.4,3.8,5.5
		c4.4,17.9,8.5,35.9,12.7,53.9c2.6,11.3,5.3,22.6,7.9,33.9c28.2,0,56,0,84.4,0c-0.6-2.3-1.2-4.4-1.8-6.4
		c-13.3-43.9-26.5-87.9-40.1-131.7c-1.6-5-0.7-8.4,3-12c22-21.5,43.9-43.2,65.9-64.9C371,98.5,392.6,77.3,414.2,56
		C418.6,51.6,423.1,47.2,427.6,42.8z"/>
	<path d="M2123.6,340c6.8-17.5,13.4-34.2,19.9-50.9c32.3-82.6,64.6-165.1,96.8-247.7c1.4-3.6,3-5.1,7.1-5
		c33.2,0.2,66.3-0.1,99.5,0.2c19,0.1,38,1.7,56,8.4c29.2,10.8,40.6,31.9,33.5,62.3c-9,38.9-32.2,67.3-65.7,88
		c-7.5,4.6-15.3,8.6-23.3,13.1c12.1,43.7,24.3,87.4,36.5,131.4c-31.2,0-62,0-93.2,0c-7-36.4-14-72.8-21.1-109.9
		c-6.2,0-12.5-0.2-18.8,0.2c-1.3,0.1-2.8,2.5-3.4,4.1c-13.2,33.4-26.3,66.9-39.2,100.4c-1.6,4.3-3.6,5.6-8.2,5.6
		C2174.8,339.9,2149.7,340,2123.6,340z M2130.9,335c23.5,0,46.2,0.1,68.9-0.1c1.4,0,3.4-1.7,4-3.1c2.6-5.9,4.8-12,7.2-18.1
		c10.7-27.4,21.5-54.8,32.1-82.3c1.8-4.7,4.5-7,9.7-6.6c4.8,0.4,9.7,0.2,14.5,0c4.7-0.2,7,2,7.8,6.5c4,21.4,8.1,42.8,12.2,64.2
		c2.5,13,5,26.1,7.6,39.2c27.6,0,54.9,0,82.5,0c-0.5-2.1-0.8-3.8-1.3-5.6c-10.8-38.9-21.7-77.9-32.5-116.8
		c-1.6-5.9-0.8-7.4,4.5-10.3c8.5-4.6,17.2-8.9,25.2-14.2c29.5-19.5,49.9-45.7,58.2-80.5c7-29.3-3.2-48.2-31.5-58.3
		c-17.2-6.1-35.1-7.4-53.2-7.5c-31.8-0.2-63.6,0-95.5-0.2c-4.4,0-6.3,1.4-7.8,5.5c-30.9,79.3-61.9,158.6-92.9,237.9
		C2144.1,301.3,2137.6,317.8,2130.9,335z"/>
	<path d="M1275.6,258.3c-3,7.6-5.7,14.5-8.4,21.4c-5.7,14.6-11.3,29.2-17.2,43.6c-0.9,2.2-3.2,4.7-5.5,5.5
		c-36.4,13.1-73.9,18.1-112.5,14.1c-16.6-1.8-32.5-6.1-46.2-16c-23-16.6-30.6-40.5-28.2-67.2c5.3-60.6,30.4-113,71.1-157.7
		c30.4-33.4,67.6-56,112.1-65.2c41.7-8.7,82.4-6.2,121.2,13.1c1.8,0.9,3.5,1.9,5.2,2.9c0.4,0.2,0.7,0.6,1.5,1.3
		c-16.7,21.4-33.3,42.8-50.1,64.2c-6.5-3.1-12.7-6.4-19.1-9.1c-42.3-18.3-78-10.2-107.1,23.6c-24.7,28.7-39.4,62.2-44.8,99.7
		c-0.8,5.8-0.4,12,0.7,17.8c2.7,14.4,13.7,23.7,29.8,25.9c19.5,2.8,38.5-0.3,57.2-5.5C1248.6,266.8,1261.5,262.5,1275.6,258.3z
		 M1361.5,55c-3.9-1.8-7.4-3.7-11-5.2c-41.1-16.6-82.9-16.7-124.7-4.2c-41.8,12.4-75.8,36.9-103.1,70.6
		c-33.8,41.8-55.4,89.1-60.2,143.2c-1.6,17.9,1.6,35.3,12.7,50.2c12.6,16.9,30.6,24.3,50.5,27.2c39.6,5.8,78.3,1,116-12.3
		c1.8-0.6,3.6-2.8,4.3-4.7c5.8-14.3,11.3-28.8,17-43.2c1.3-3.3,2.6-6.6,4.1-10.6c-6.2,1.9-11.6,3.6-17,5.3
		c-19.8,6.1-39.8,11.2-60.7,10.6c-6.1-0.2-12.3-1-18.2-2.5c-21-5.4-32.2-23.4-28.7-47.1c6-40.9,22.1-77.3,50.4-107.7
		c23.6-25.3,52.7-35.6,86.9-27.3c12.8,3.1,24.9,8.8,38.1,13.6C1331.8,93.1,1346.5,74.3,1361.5,55z"/>
	<path d="M1594.8,103.9c-25,0-49.1,0-73.9,0c1.4-3.7,2.6-6.9,3.9-10.1c6.9-17.7,13.8-35.3,20.6-53c1-2.7,2.1-4.3,5.6-4.3
		c74.3,0.1,148.6,0.1,223,0.1c0.8,0,1.6,0.1,3.1,0.2c-0.5,1.5-0.8,2.9-1.3,4.2c-7.6,19.5-15.3,39-22.8,58.6c-1.3,3.4-3,4.4-6.5,4.4
		c-21.5-0.2-43,0-64.5-0.2c-3.6,0-5.2,1.1-6.5,4.4c-29.4,75.6-59,151.2-88.5,226.8c-1.5,3.8-3.3,5.2-7.5,5.1
		c-25.3-0.2-50.6-0.1-76.9-0.1C1533.3,261.2,1563.9,183,1594.8,103.9z M1509.8,335c22.7,0,44.6-0.1,66.4,0.1c4.3,0,5.9-1.4,7.4-5.2
		c29.1-74.9,58.4-149.6,87.6-224.5c1.8-4.7,4.4-6.7,9.6-6.7c21,0.2,42,0,63,0.2c2.9,0,4.3-0.8,5.4-3.6c6.3-16.6,12.9-33.2,19.4-49.8
		c0.4-1.1,0.6-2.4,1-3.6c-0.9-0.2-1.4-0.4-1.9-0.4c-71.3,0-142.6-0.1-214,0.1c-1.5,0-3.8,1.8-4.4,3.3c-5.3,12.9-10.3,26-15.3,39
		c-1.9,4.8-3.7,9.5-5.8,14.8c2.5,0,4.3,0,6.1,0c19,0,38,0,57,0c8,0,9.8,2.8,6.9,10.2c-23.1,59.2-46.2,118.3-69.4,177.5
		C1522.5,302.5,1516.3,318.4,1509.8,335z"/>
	<path d="M1811.6,340c8.3-21.1,16.2-41.4,24.1-61.6c30.9-79,61.8-157.9,92.5-237c1.4-3.6,3-5,7.1-5c34.8,0.2,69.6-0.1,104.5,0.2
		c21.2,0.2,42.2,2.7,61.9,11.4c31.5,13.9,46,40.7,43.7,74.2c-2.9,42.3-19.7,79.9-42.6,114.8c-32.3,49.4-77.1,82.1-134.7,96.4
		c-17.5,4.4-35.3,6.6-53.4,6.6c-32.3,0-64.6,0-97,0C1816.1,340,1814.2,340,1811.6,340z M1819,335c2.4,0,4.2,0,6.1,0c30,0,60,0,90,0
		c17.9,0,35.6-2.1,52.9-6.5c56-14.3,99.6-46.1,130.9-94.3c22.2-34.1,38.8-70.7,41.7-112c2.2-31.8-11.1-56.5-41-69.8
		c-19.1-8.5-39.4-10.7-60-10.8c-33.5-0.2-67,0-100.5-0.2c-4.2,0-6,1.3-7.5,5.2c-33.3,85.5-66.8,171-100.2,256.5
		C1827.2,313.6,1823.2,324.1,1819,335z"/>
	<path d="M832.6,36.5c-31.1,79.6-61.8,158.1-92.8,237.4c39.2,0,77.6,0,116.8,0c-8.8,22.4-17.3,44.2-25.7,65.9
		c-66.4,0-132.5,0-199.1,0c5.1-13.1,10.1-25.7,15-38.4c33.8-86.6,67.7-173.1,101.4-259.7c1.5-3.8,3.3-5.3,7.5-5.2
		c23.7,0.2,47.3,0.1,71,0.1C828.3,36.5,829.9,36.5,832.6,36.5z M639.1,334.6c0.6,0.2,0.8,0.2,1,0.2c61.5,0,122.9,0.1,184.4,0
		c1.5,0,3.7-2,4.3-3.5c5.5-13.4,10.7-26.9,15.9-40.4c1.5-3.8,2.9-7.7,4.6-12.2c-2.4,0-4.2,0-6,0c-32.7,0-65.3,0-98,0
		c-1.3,0-2.7,0.1-4,0c-4.8-0.4-6.7-3.2-5.5-7.8c0.4-1.4,0.9-2.9,1.4-4.2c26.2-66.9,52.4-133.8,78.5-200.6c3.1-7.9,6.1-15.9,9.4-24.6
		c-2.7,0-4.5,0-6.3,0c-19.8,0-39.7,0.2-59.5-0.1c-4.7-0.1-6.5,1.7-8.1,5.8c-33.2,85.2-66.5,170.4-99.8,255.5
		C647.4,313.3,643.2,323.9,639.1,334.6z"/>
	<path d="M362.6,340c6.9-17.6,13.5-34.5,20.1-51.3c32.2-82.4,64.4-164.8,96.6-247.3c1.4-3.6,3.1-5,7.1-5c34.7,0.2,69.3,0,104,0.2
		c17,0.1,33.9,1.8,49.9,8.4c23.6,9.7,35.2,29.6,32.2,54.9c-7.7,64.6-59.4,121.3-122.9,135.1c-19.9,4.3-40,4.8-60.1,4.4
		c-4-0.1-5.8,1.2-7.2,4.9c-11.7,30.4-23.7,60.7-35.4,91.2c-1.3,3.5-3.1,4.6-6.9,4.6C414.5,339.9,389,340,362.6,340z M369.9,335
		c23.6,0,46.2,0.1,68.9-0.2c1.4,0,3.5-2.1,4.1-3.6c11.8-29.8,23.5-59.7,35.1-89.7c2-5.1,4.8-7.3,10.4-7.1c9.5,0.3,19,0.1,28.5-0.3
		c45.2-1.8,83.6-18.5,113.2-53.1c20.2-23.6,33.6-50.7,37.5-81.9c2.8-23-7.5-40.3-28.8-49.4c-15.7-6.7-32.2-8-48.9-8.1
		c-33.2-0.2-66.3,0-99.5-0.2c-4.4,0-6.3,1.3-7.9,5.4c-30.9,79.4-61.9,158.7-92.9,238C383.1,301.3,376.6,317.8,369.9,335z"/>
	<path d="M878.9,339.5c3.7-9.6,7.4-19.2,11.2-28.7c35.1-89.7,70.2-179.3,105.1-269.1c1.6-4.1,3.5-5.4,7.9-5.4
		c23.7,0.2,47.3,0.1,71,0.1c1.7,0,3.3,0,5.5,0c-0.4,1.6-0.6,2.9-1.1,4c-38.5,98.5-77,197-115.5,295.5c-0.9,2.2-1.4,4.1-4.6,4.1
		c-26-0.2-52-0.1-78-0.1C880,339.9,879.7,339.8,878.9,339.5z M886.1,334.6c0.9,0.2,1.4,0.3,1.8,0.3c22.3,0,44.7-0.1,67,0.1
		c3.2,0,3.8-1.9,4.6-4.1c37.1-94.8,74.1-189.6,111.2-284.4c0.6-1.4,0.9-3,1.6-5.1c-2.4,0-4.1,0-5.7,0c-20.3,0-40.7,0.1-61-0.1
		c-4.1-0.1-5.7,1.5-7.1,5.1c-33.4,85.7-66.9,171.3-100.4,257C894.1,313.8,890.2,324.2,886.1,334.6z"/>
	<path d="M1504,36.5c-7.7,19.9-15.1,38.8-22.5,57.6c-31.4,80.4-62.9,160.7-94.2,241.2c-1.3,3.5-2.8,4.8-6.7,4.8
		c-24.3-0.2-48.7-0.1-73-0.1c-1.4,0-2.9-0.1-4.9-0.2c5.1-13.1,10.1-25.7,15-38.4c33.8-86.6,67.7-173.1,101.4-259.8
		c1.5-3.8,3.3-5.2,7.5-5.2c23.8,0.2,47.7,0.1,71.5,0.1C1499.8,36.5,1501.4,36.5,1504,36.5z M1496.7,41.5c-2.9,0-4.7,0-6.5,0
		c-20,0-40,0.2-60-0.1c-4.5-0.1-6.3,1.5-7.8,5.5c-33.3,85.4-66.7,170.7-100,256.1c-4.1,10.5-8.1,21-12.4,32c2,0,3.5,0,5,0
		c20.8,0,41.7-0.1,62.5,0.1c3.6,0,5.2-1.2,6.4-4.5c33.9-86.9,67.9-173.8,101.9-260.7C1489.3,60.8,1492.8,51.7,1496.7,41.5z"/>
	<path d="M2411.6,340c5.2-13.3,10.1-26,15.1-38.6c33.8-86.6,67.7-173.1,101.4-259.8c1.5-3.8,3.3-5.2,7.5-5.2
		c23.8,0.2,47.7,0.1,71.5,0.1c1.6,0,3.3,0,5.7,0c-2.5,6.7-4.8,12.7-7.1,18.6c-36.5,93.4-73.1,186.8-109.5,280.2
		c-1.5,3.9-3.3,4.8-7.2,4.8c-24-0.2-48-0.1-72-0.1C2415.5,340,2413.9,340,2411.6,340z M2419.1,334.6c0.9,0.2,1.3,0.4,1.8,0.4
		c22.3,0,44.7,0,67,0.1c3.2,0,3.8-1.8,4.7-4c37.1-94.8,74.1-189.6,111.2-284.4c0.6-1.5,1-3,1.7-5.2c-2.6,0-4.4,0-6.2,0
		c-20,0-40,0.2-60-0.1c-4.4-0.1-6.3,1.4-7.8,5.5c-31.5,80.9-63.1,161.8-94.7,242.6C2430.8,304.5,2425,319.4,2419.1,334.6z"/>
	<path d="M3466.5,193.8c-6.8,17.5-13.4,34.4-20,51.2c-1.8,4.4-2.7,10.3-6,12.7c-3.1,2.2-9,0.8-13.6,0.8c-32.1,0-64.3,0-96.4,0
		c-2,0-3.9,0-6.7,0c2.3-6,4.3-11.3,6.4-16.6c5.8-14.9,11.7-29.7,17.4-44.6c1-2.7,2.3-3.9,5.3-3.9c36.6,0.1,73.3,0.1,109.9,0.1
		C3463.7,193.5,3464.7,193.7,3466.5,193.8z M3459.2,198.9c-1.4-0.2-2.2-0.4-3-0.4c-33.5,0-66.9-0.1-100.4,0.1
		c-1.5,0-3.9,1.7-4.5,3.2c-3.7,8.7-7,17.6-10.4,26.4c-3.2,8.2-6.4,16.3-9.6,24.6c1,0.3,1.5,0.6,1.9,0.6c34,0,67.9,0.1,101.9-0.1
		c1.3,0,3.3-1.5,3.8-2.8C3445.7,233.6,3452.3,216.6,3459.2,198.9z"/>
	<path d="M2313.1,93.1c7.4,1,14.9,1.4,22.1,3.1c14.7,3.4,21,14.3,17.5,28.9c-6.9,28.5-30.9,47.2-61.2,47.7c-5.3,0.1-10.7,0.2-16-0.1
		c-6.1-0.3-8.1-3.3-5.9-9c8.4-21.9,16.9-43.7,25.7-65.4c0.8-2,4-3.9,6.3-4.3c3.7-0.7,7.6-0.2,11.4-0.2
		C2313.1,93.6,2313.1,93.3,2313.1,93.1z M2273.3,167.8c6.9,0,12.7,0.1,18.5,0c26.6-0.6,46.4-15,55-40c5.3-15.3-0.3-25.3-16.4-27.6
		c-8.7-1.2-17.6-0.8-26.4-1.4c-3-0.2-4.3,1-5.4,3.7c-5.5,14.4-11.2,28.8-16.8,43.2C2279.2,152.8,2276.4,159.9,2273.3,167.8z"/>
	<path d="M1937.3,277.8c-5.1,0-9.6,0.1-14.1,0c-6.9-0.2-8.9-3.3-6.4-9.8c11.6-29.7,23.2-59.5,34.8-89.2
		c9.7-24.9,19.5-49.8,29.2-74.8c1.3-3.3,2.9-6,6.5-5.9c13.9,0.4,28.1-0.2,41.8,2.1c21.8,3.7,33.9,20.4,31.1,42.3
		c-5.4,42.3-21.9,79.8-52.9,109.7c-17.5,16.9-39.5,24-63.6,25.2C1941.4,277.6,1939,277.7,1937.3,277.8z M1920.3,272.8c6,0,11,0,16,0
		c25.7-0.1,49-6.8,68.3-24.6c12.9-11.9,22.7-26.1,30.4-41.8c10-20.2,18.5-40.9,20.4-63.8c1.6-20.4-7.9-34.3-28-37.8
		c-11.8-2.1-24.2-1.3-36.3-1.9c-3.3-0.2-4.9,0.8-6.1,4.1c-18.5,47.8-37.2,95.4-55.9,143.2C1926.2,257.4,1923.4,264.7,1920.3,272.8z"
		/>
	<path d="M551.8,97.2c7.2,0.9,14.6,1.2,21.7,2.9c11.2,2.8,16.7,12.2,14.8,23.6c-5.2,31.4-31.4,53.2-64.5,53.8c-3.7,0.1-7.3,0.1-11,0
		c-6.4-0.3-8.3-3.1-6-9.2c4.1-10.9,8.4-21.7,12.7-32.5c4.2-10.7,8.5-21.3,12.5-32.1c1.5-4.1,4.2-5.7,8.3-5.7c3.8,0.1,7.7,0,11.5,0
		C551.8,97.7,551.8,97.5,551.8,97.2z M510.5,172.5c5,0,9.3,0,13.6,0c34.5-0.1,54.3-24.9,59-47.8c2.4-11.6-2.5-19.2-14.2-20.6
		c-9.7-1.2-19.6-0.9-29.4-0.9c-1,0-2.6,1.8-3.1,3.1c-4.4,10.8-8.5,21.7-12.8,32.5C519.4,149.7,515.1,160.6,510.5,172.5z"/>
</g>
</svg>
