<?xml version="1.0" encoding="utf-8"?>
<!-- Generator: Adobe Illustrator 23.0.3, SVG Export Plug-In . SVG Version: 6.00 Build 0)  -->
<svg version="1.1" id="Calque_1" xmlns="http://www.w3.org/2000/svg" xmlns:xlink="http://www.w3.org/1999/xlink" x="0px" y="0px"
	 viewBox="0 0 2048 804" style="enable-background:new 0 0 2048 804;" xml:space="preserve">
<style type="text/css">
	.st0{fill:#FFFFFF;}
</style>
<g>
	<path d="M961,1c-3.9,5.5-7.7,11.1-11.8,17c9.8-1.9,19.1-4,28.6-5.4c28.6-4.2,57.1-5.1,85.4,2c44.3,11.1,77.2,36.3,95.4,79.5
		c0.6-0.6,1.4-1.1,2-1.8c8.7-11.6,20.2-19,33.6-24.1c31.9-12.2,63.7-24.6,95.3-37.3c10.2-4.1,19.7-9.7,29.7-14.2
		c1.9-0.9,4.9-1,6.8-0.2c23.4,10,46.7,20.3,70.2,30.3c3,1.3,3.8,2.9,3.7,6c-0.1,16.6-0.1,33.3-0.1,50.4c28.4,2.5,52.5,14.5,69.1,39
		c16.4,24.2,19.1,50.9,11.9,79.1c10.5-4.8,20.3-9.7,30.5-13.9c21.7-9,44.3-14.5,67.8-16.1c3.5-0.2,4.2-1.8,4.9-4.7
		c9.7-42.4,35.6-69.9,77.6-80.6c43.5-11.1,89.6,10.2,106.7,53.5c0.3,0.8,0.7,1.5,1.5,3c2.3-5.5,4.1-10.4,6.4-15.2
		c0.8-1.7,2.5-3.6,4.2-4.3c63.1-24.7,126.2-49.3,189.4-73.9c0.6-0.2,1.2-0.4,2.8-0.9c-16,42.2-31.7,83.7-47.6,125.7
		c15.2,0,29.9,0,45.5,0c-0.9,2.2-1.4,3.7-2,5.1c-19.6,45.2-39.2,90.4-58.6,135.7c-1.4,3.2-2.9,4.5-6.6,4.4
		c-12.3-0.3-24.7,0.1-37-0.2c-4-0.1-6.3,1-6.6,5.6c28.7,9.4,50.9,26.9,65,54c13.9,26.5,16.2,54.9,12.2,83.9c37.2,0,73.9,0,111,0
		c-1.1,1.4-2.2,3-3.4,4.5c-32.5,39.8-64.9,79.5-97.5,119.2c-3.1,3.8-3.5,6.7-1.9,11.1c3.9,10.3,7.5,20.7,10.7,31.2
		c0.9,2.9,0.7,6.5-0.2,9.4c-2.7,8.4-5.9,16.6-9.3,24.8c-1.6,3.9-1.2,6.4,1.7,9.7c31.6,35.6,63.1,71.4,94.6,107.2
		c1.2,1.3,2.3,2.7,4.2,5c-6.6,0-12.2,0-17.7,0c-12.3,0-24.7,0.1-37,0.2c-1.6,0-3.3,0.3-4.9,0.5c-457,0-914,0-1371,0
		c-0.8-1.2-1.6-2.5-2.5-3.7c-42.9-56.1-85.8-112.2-128.8-168.3c-1-1.3-2.1-2.6-3.3-4.1c-1.1,1.4-2.1,2.5-3,3.6
		c-43.1,56.4-86.3,112.7-129.4,169.1c-0.8,1-1.4,2.2-2.1,3.3c-114,0-228,0-342,0c1.1-1.7,2.1-3.4,3.3-5
		C76.5,711.5,144.8,622.9,213,534.3c7.6-9.9,15.2-19.8,22.8-29.6c-0.5-0.8-0.8-1.4-1.2-1.9c-46.5-70.1-52.2-144.7-24.4-222.8
		c1.2-3.3,0.4-5.2-1.4-7.5C140.9,183.8,73.1,95.1,5.3,6.4C4,4.8,3.1,2.8,2,1c112.3,0,224.7,0,337,0
		c39.4,51.2,78.9,102.3,118.2,153.6c4,5.2,8.2,8.6,14.7,9.7c5.7,1,11.3,2.9,16.7,5c3.5,1.3,5.2,0.5,7.4-2.3
		c41.5-54,83.1-108,124.6-161.9c1-1.3,1.6-2.8,2.4-4.2C735.7,1,848.3,1,961,1z M917.8,23c-2.5-0.1-4-0.3-5.4-0.3
		c-91.2,0-182.3,0-273.5-0.1c-3.6,0-5.7,1.4-7.8,4.1c-42.5,55.4-85.2,110.6-127.7,166c-2.4,3.1-4.2,3.4-7.8,2.2
		c-13.2-4.5-26.7-8.3-39.9-12.7c-2.9-1-6.1-2.7-7.9-5.1c-38.8-50.1-77.4-100.2-116-150.4c-2.1-2.7-4.1-4.1-7.8-4.1
		c-91.2,0.1-182.3,0.1-273.5,0.1c-1.5,0-3.1,0.2-5.4,0.4c11.1,14.6,21.7,28.4,32.4,42.3c52,68,104.1,136,156.1,204
		c1.6,2.1,3.4,3.7,1.7,7c-17.5,35.5-22.3,73.3-19.2,112.4c3.3,41.1,16.9,78.2,42.9,110.6c1.3,1.7,2.6,3.4,4.1,5.2
		c-71.4,92.7-142.7,185.3-214.6,278.6c3,0,4.8,0,6.7,0c91.8,0,183.7,0,275.5,0.1c4.2,0,6.6-1.4,9-4.6
		c45.8-60,91.7-119.9,137.5-179.9c1.3-1.7,2.6-3.4,4.3-5.4c1.5,1.9,2.7,3.4,3.9,5c45.8,59.8,91.6,119.6,137.2,179.5
		c3.1,4,6.2,5.4,11.1,5.4c362.1-0.1,724.3-0.1,1086.4-0.1c87.3,0,174.7-0.1,262-0.1c5.4,0,10.8,0,17.1,0c-1.8-2.2-2.8-3.5-3.9-4.7
		c-23.8-27-47.5-54.1-71.5-80.9c-3.4-3.8-3.8-6.8-2-11.4c4.1-9.8,7.7-19.9,11.1-30c0.8-2.3,0.8-5.2,0.1-7.5
		c-4-12.5-8.2-25-12.8-37.3c-1.4-3.7-0.6-6,1.7-8.8c25.5-31,50.9-62.2,76.3-93.3c1.2-1.5,2.4-3.1,3.8-5c-16,0-31.4,0-46.8,0
		c-15.4,0-30.8,0-46.4,0c0.9-3.1,1.7-6.2,2.6-9.2c5.5-17.5,6.6-35.2,4.4-53.4c-4.8-39.1-31.1-69.1-69.2-78.3
		c-5.8-1.4-11.7-2.4-17.9-3.6c5.7-13.1,11.4-25.7,16.7-38.4c1.2-2.9,2.7-4,5.9-3.9c12.3,0.2,24.7-0.1,37,0.2c4,0.1,5.8-1.2,7.3-4.8
		c13.1-30.6,26.4-61.1,39.6-91.7c0.7-1.6,1.2-3.2,2.1-5.6c-15,0-29.1,0-43.8,0c13.9-36.8,27.6-72.9,41.6-109.9
		c-2.6,0.9-4.1,1.5-5.7,2.1c-42.7,16.6-85.3,33.3-128.1,49.7c-5.3,2-9,4.5-11,10.2c-1.7,4.8-4.5,9.3-7.6,13.4
		c-8.2,11.1-16.9,21.9-25.3,32.9c-0.8,1-1.3,2.1-2,3.1c-1.8-10.1-2.2-19.4-2.8-28.7c-1.9-29.7-22.1-54.2-50.9-61.5
		c-43.1-10.9-89,19-97,63.4c-1.3,7-1.5,14.2-2.3,21.8c-56.1-2-104.1,19.6-148.1,52.4c-4.9-5.5-9.4-10.6-13.3-15
		c5.2-8.6,10.9-16.3,14.8-24.8c16.5-36.1,2.4-77.2-31.7-93.3c-14.4-6.8-29.5-7.6-45-5.9c-2,0.2-4.1,0.3-6.8,0.4
		c5.4-19.9,5.9-39.3,5.6-58.9c-0.1-3.2-0.7-5-4-6.4c-16-6.7-31.8-13.8-47.7-20.5c-2-0.8-4.9-0.7-6.9,0.2
		c-12.2,5.4-24,11.6-36.4,16.5c-27.7,11-55.6,21.5-83.4,32.1c-22.8,8.7-34.9,30-29.8,53.4c1.5,6.8,4.2,13.3,6,20.1
		c1,3.7,2.9,5.4,6.6,6.3c11.8,2.9,23.4,6.2,35.6,9.5c-12.2,29.4-24.3,58.3-36.8,88.3c-17.2-22-39.1-35.3-64.3-42.2
		c6-11.7,12.3-22.3,17-33.6c11.3-27.4,14.7-55.9,5.3-84.5c-12.7-38.3-41.2-60.1-79-70.1c-34.5-9.2-69.3-6.7-103.3,2.8
		c-22,6.2-43.1,15.7-64.6,23.7c-2,0.8-4.1,1.6-6.1,2.4c-0.1-0.3-0.3-0.5-0.4-0.8C896.5,50.8,906.8,37.3,917.8,23z M1174.4,228.1
		c4.9-11.7,9.7-23.3,14.7-35.3c-10.1-2.8-19.7-5.5-29.2-8.2c-3.7,9.2-7.5,18.7-11.3,28C1157.1,217.6,1165.5,222.7,1174.4,228.1z"/>
	<path class="st0" d="M1174.4,228.1c-9-5.4-17.3-10.5-25.7-15.5c3.8-9.4,7.6-18.9,11.3-28c9.5,2.7,19.1,5.4,29.2,8.2
		C1184.1,204.7,1179.3,216.3,1174.4,228.1z"/>
	<path d="M482,572.8c-1.5,1.8-2.7,3.3-3.9,4.9c-48.1,62.9-96.2,125.7-144.2,188.6c-2.6,3.5-5.3,5-9.9,5
		c-80.2-0.2-160.3-0.1-240.5-0.1c-1.9,0-3.9,0-7,0c68.6-89.1,136.6-177.3,204.7-265.8c-1-1.2-2-2.4-2.9-3.5
		c-29.7-32.3-45-70.8-48.2-114.2c-2.7-36.7,1.6-72.3,18.9-105.3c3.6-6.9,2.8-10.9-1.7-16.8C190.4,191.7,133.8,117.5,77.1,43.4
		c-1.2-1.5-2.3-3.2-4-5.6c2.6,0,4.4,0,6.1,0c79.3,0,158.7,0,238-0.1c3.9,0,6.3,1.1,8.7,4.2c37.9,49.5,76,98.8,114,148.2
		c2.7,3.5,5.5,5.6,10,6.4c19.1,3.5,37.3,9.9,55,18.5c1.4-1.8,2.8-3.4,4.1-5.1c43.2-56.1,86.4-112.2,129.6-168.3
		c1.8-2.3,3.5-3.9,6.8-3.9c80.7,0.1,161.3,0.1,242,0.1c0.8,0,1.6,0.1,3.5,0.2c-1.5,2-2.5,3.5-3.7,5
		C846.6,96.1,806,149.1,765.5,202.2c-1.4,1.8-2.1,4.1-3.1,6.1c0.5,0.3,1.1,0.6,1.6,0.9c1.6-2.1,3.2-4.1,4.8-6.2
		c28.5-37.1,59.4-72,96.3-101.1c35.6-28.1,75.3-47.1,120.5-53.4c29-4.1,58-4.5,85.7,6.7c32.2,13,53.7,35.6,59.3,70.8
		c4,25.4-1,49.6-13.2,72c-6.3,11.6-14.8,22.1-22.3,33c-0.9,1.3-2,2.5-3.5,4.3c43.1,5.2,76.8,22.4,91.1,67.2
		c18.4-44.3,36.5-87.7,54.8-131.7c-9.8-2.7-19-5.2-28.3-7.7c-5.6-1.5-11.3-2.9-16.9-4.6c-1.3-0.4-3.2-1.3-3.4-2.3
		c-2-8.3-5.4-16.8-5.2-25.1c0.4-14.2,9.3-23.2,22.6-28.2c27.9-10.6,55.7-21.2,83.4-32.1c10.5-4.2,20.6-9.4,31-13.8
		c2-0.9,4.9-1.1,6.8-0.3c11.4,4.6,22.6,9.8,34,14.5c2.9,1.2,3.8,2.8,3.9,5.9c1.2,25.3-5.2,49.2-12.6,73c-0.5,1.5-1,3.1-1.8,5.7
		c2.3-1.6,3.7-2.7,5.1-3.6c19.8-13.4,40.9-16.8,63-6.9c26,11.6,37.6,42.3,27.5,70.8c-4.8,13.4-13.1,24.2-24.4,32.9
		c-1.5,1.2-3.2,3.3-3.2,4.9c0.6,24.2-6.9,46.6-14.5,69.1c-1.5,4.5-3.2,9-3.9,14.1c1.2-1.4,2.4-2.8,3.6-4.2
		c31.5-36.2,67.3-67,111.2-87.3c29.2-13.5,59.8-20.4,92.2-17.7c4.3,0.4,8.6,0,13.4,0c-0.9-3.9-1.8-7.6-2.4-11.3
		c-7.8-45,35.6-85.8,79.9-75.2c32.8,7.8,50.2,42.4,37.7,75.7c-1.7,4.5-3.8,8.8-6.3,14.3c11-0.5,21.2-0.9,31.4-1.6
		c1.4-0.1,2.9-1.5,3.9-2.7c14.4-16.4,29.1-32.6,38.8-52.5c0.6-1.2,2-2.2,3.2-2.7c34.6-13.5,69.2-27,103.8-40.4
		c0.1,0,0.3,0.1,1.6,0.4c-13.1,33-26.1,65.8-39.3,98.9c13.9,0,28.6,0,44,0c-0.7,2.1-1.1,3.5-1.7,4.8c-9.5,22-19.2,44-28.5,66
		c-1.4,3.4-3.3,4.3-6.7,4.2c-12.5-0.2-25,0-37.5-0.1c-2.6,0-4.2,0.5-5.4,3.2c-9.3,21.7-18.8,43.4-28.3,65.1c-0.2,0.4-0.2,0.9-0.4,2
		c2,0,3.9,0.1,5.8,0c11.7-0.6,23.3,0.3,34.6,3.7c31.3,9.6,51.5,35.4,54.3,70.6c2.1,25.4-2.7,49.1-20.5,69.8c15.4,0,30.3,0,45.1,0
		c15,0,30,0,45.5,0c-1,1.3-1.9,2.7-3,4c-21.2,25.9-42.3,51.9-63.6,77.8c-2.1,2.6-2.7,4.7-1.5,8c4.7,13.2,9.3,26.4,13.5,39.7
		c0.8,2.6,0.8,5.9-0.1,8.4c-4,11.7-8.3,23.2-12.7,34.7c-1.2,3.2-0.9,5.3,1.4,7.9c19.5,21.9,38.8,44,58.2,66c1.1,1.2,2.1,2.5,4.1,4.8
		c-2.8,0-4.7,0-6.5,0c-82,0-164,0.1-246,0.1c-359,0-718,0-1077,0.1c-4.9,0-7.8-1.6-10.7-5.4c-48.2-63.2-96.5-126.3-144.8-189.4
		C484.1,575.4,483.2,574.3,482,572.8z M1223.3,134.5c5.7,3.4,11.3,6.5,18.2,2.6c2.3-1.3,5-1.8,7.6-2.6c8.9-2.7,17.7-5.8,26.8-8
		c10.1-2.5,15.2,2.7,12.9,12.9c-1.4,6-3.1,12-5.4,17.6c-17.5,43.4-35.3,86.6-52.8,130c-21.8,53.9-43.3,107.8-64.9,161.8
		c-1.5,3.7-2.6,7.4-4.1,11.7c-16.9,0-33.6,0-48.9,0c8.4-14.4,17.8-28.9,25.7-44.3c13.7-26.9,22.1-55.4,21.5-85.9
		c-0.4-23.1-8.8-41.9-30.3-53c-10.8-5.6-22.5-8.3-34.5-9.3c-31-2.7-61.9,0.5-92.9,2.1c-3,0.2-4.3,1.7-5.2,4.3
		c-7.4,21.7-16.8,42.3-29.2,61.7c-28.7,44.9-64,84.3-102.4,121.1c-9.1,8.7-18.5,17.2-28.2,26.3c-3-3.8-6.1-6.9-8.3-10.6
		c-3.9-6.6-7.6-13.3-10.7-20.3c-21.2-48.1-38.3-97.6-53.7-147.8c-0.4-1.2-0.4-2.4-0.7-4c2.1,0,3.7,0,5.4,0c25.6-0.6,51.3-0.5,76.9-2
		c40.7-2.4,80.7-9.3,119.5-22.2c34.9-11.5,67.9-26.9,95.6-51.6c20.4-18.2,36.4-39.3,42.3-66.8c7.7-36.1-8.7-64.4-44.2-74.9
		c-8.7-2.6-17.9-4-27-4.4c-47.4-2-90,12.2-128.5,39.3c-28.2,19.7-52.7,43.5-74.6,69.9c-19.9,23.9-38.8,48.7-57.8,73.4
		c-3.8,5-7.5,6.8-13.7,5.8c-4-0.6-5.7-1.9-6.7-5.7c-6.2-21.4-12.7-42.8-19.1-64.1c-8.9-29.5-17.4-59.1-27.1-88.3
		c-3.5-10.4-8.9-20.5-14.9-29.7c-6.7-10.4-13.7-9.9-21.4-0.1c-19.2,24.4-38.3,48.7-57.4,73.1c-0.7,0.9-1.3,2-1.9,3
		c2.8-1.6,4.9-3.7,7.1-5.6c8.5-7.5,16.8-15.2,25.6-22.3c7.7-6.2,13.4-5.9,19.8,1.8c4.9,6,9.4,12.7,12.2,19.8
		c8.2,20.7,15.9,41.7,23.1,62.8c5.8,17,10.6,34.3,15.9,51.6c-7.3,0-14.1,0.5-20.8-0.1c-27.9-2.6-55.7-5.4-83.5-8.3
		c-3.3-0.3-5.3,0.1-7.1,3.4c-3.2,6-7,11.8-10.8,17.4c-3.1,4.4-6.6,8.5-10.3,13.2c3.5,0.3,6.3,0.3,9.1,0.9
		c12.3,2.6,24.9,4.6,36.9,8.3c9.8,2.9,16.7,10.1,20.4,20c6.2,16.6,1.2,37.3-12.1,49.6c-0.3-0.2-0.6-0.3-0.8-0.5
		c-3.5-4-7-8-10.5-12.1c-25-28.9-51.2-56.6-80.8-80.9c-44.8-36.8-95.5-55.2-153.8-48.3c-50.5,6-87,32.3-108.2,78.7
		c-9.2,20-12.1,41.4-12.4,63.3c-1,79.2,46.9,141.9,123.8,160.4c53.6,12.9,105.6,6.2,155.4-17.1c42.9-20.1,79.5-49,110.9-83.9
		c25.4-28.4,48.6-58.7,72.8-88.2c1.1-1.4,2.2-2.7,3.7-4.6c22.1,73.5,47.3,144.9,85,211.8c5-3.4,9.3-6.2,13.4-9.3
		c78.3-58.6,135.6-133.6,173.2-223.7c3.8-9,7.7-13.8,18-12.9c9.4,0.8,18.8,0.2,28.4,0.2c0,0.6,0,1.1-0.1,1.5
		c-9,21.7-18,43.4-27.2,64.9c-5.2,12.2-15.1,19.3-27.8,22.2c-3.5,0.8-5.2,2.4-6.5,5.7c-43.9,112.8-87.9,225.5-131.9,338.3
		c-0.9,2.3-1.7,4.6-2.8,7.6c2.4,0,4.2,0,6,0c39,0,78,0,117,0.2c4.7,0,6.8-1.2,7.8-5.8c1.4-6.7,3.7-13.2,5.8-20.6
		c6.1,8.4,11.4,15.9,16.8,23.3c0.8,1.1,2,2.9,3.1,2.9c8.4,0.2,16.7,0.1,26,0.1c-1.7-2.2-2.6-3.5-3.6-4.7
		c-8.8-10.9-17.5-21.8-26.4-32.6c-2-2.4-2.2-4.3-1-7.1c3.2-7.5,6.3-15.1,8.8-22.8c1.6-5.1,4.2-6.6,9.6-6.6c261,0.1,522,0.1,783,0.1
		c1,0,2,0.1,3,0c3.4-0.5,4.5,1.1,5.2,4.3c2.9,13.4,6,26.7,9,40c2.3,10.2,4.7,20.3,7,30.3c8.1,0,15.6,0,23.6,0
		c-2.6-11.3-5.1-22.2-7.6-33.2c8.5,10.2,16.9,20.2,25.4,30.2c1,1.2,2.4,2.9,3.7,3c8.5,0.3,17.1,0.1,26.6,0.1c-1.8-2.2-2.9-3.5-4-4.7
		c-8.8-10-17.5-20.1-26.5-30c-2.4-2.6-2.7-4.7-1.4-7.9c4.3-11.2,8.4-22.5,12.5-33.7c0.7-2,1.4-4,2.3-6.5c-8,0-15.3,0.2-22.6-0.1
		c-3.1-0.1-4.3,1.1-5.2,3.9c-2.9,9.5-6.1,18.9-9.2,28.4c-4.4-0.8-6.5-3.1-7.3-7.3c-1.5-8.3-3.6-16.5-5.5-25c-2.1,0-3.7,0-5.4,0
		c-277.2,0-554.3,0-831.5-0.1c-4.1,0-5.9,1.2-6.9,5.1c-2,7.4-4.6,14.7-7.3,23c-6.6-8.9-12.5-17-18.5-24.9c-0.9-1.2-2.4-2.8-3.7-2.9
		c-8.1-0.3-16.2-0.1-25.1-0.1c1.5,2,2.3,3.4,3.3,4.6c9.4,11.9,18.8,23.8,28.1,35.8c1.1,1.4,2.1,3.7,1.7,5.2
		c-1.7,5.8-3.9,11.5-6.3,18.2c-17.5-22.9-34.6-45.2-51.6-67.5c13.3-18.6,26.4-36.7,39.1-55c1.3-1.8,1.7-5,1.1-7.1
		c-3.5-12.3-7.4-24.5-11.2-36.8c-1-3.3-2-6.6-3.1-10.3c8.9,0,17-0.1,25.2,0.1c2.9,0.1,4.3-0.8,5.4-3.7
		c14.2-37.2,28.6-74.3,42.8-111.4c16.2-42.1,32.3-84.3,48.3-126.5c1.3-3.3,2.9-4.8,6.5-4.3c5.3,0.8,10.6,0.9,15.9,1.7
		c24.8,4.1,39.7,17.8,43.7,40.9c1.2,6.8,1.5,14,0.9,20.9c-3,34.1-16.2,64.6-33.8,93.6c-2.9,4.7-6.3,6.8-11.7,7.7
		c-28.6,4.4-56.3,12.2-83.3,22.4c-2.6,1-3.6,2.3-3.6,5.1c0.1,5.3-0.2,10.7-0.2,16c0,10.2,4.6,15.4,14.7,16.6
		c13.3,1.6,25.3-2.6,36.8-8.7c14.4-7.6,26.7-18.1,38.5-29.2c1.6-1.5,3.9-3,5.9-3.1c19.3-1.5,38.5-2.7,57.8-4
		c1.7-0.1,3.4,0.1,5.5,0.2c-0.4,1.8-0.6,2.9-0.8,4c-2,10.8-3.7,21.7-1.2,32.7c2.5,11.4,10.1,17.2,21.5,15c7.7-1.5,15.8-3.8,22.3-8
		c14.2-9,27.3-19.5,41.1-29.1c6.8-4.7,10-11.2,11.6-20.4c-17.1-4-34.3-8-51.6-12.1c0.4-1.3,0.6-2.8,1.2-4.2
		c17.2-44.2,34.4-88.4,51.7-132.6c0.6-1.5,2.2-3,3.7-3.6c23.6-9,47.3-18,71-26.8c3.1-1.1,6.5-1.7,9.8-1.9c5.8-0.4,8.8,2.6,8.8,8.3
		c0,2.3-0.3,4.7-1,6.9c-2.5,7.6-4.7,15.3-7.9,22.6c-15.4,35.6-30.9,71.1-46.8,106.5c-14.2,31.7-24.2,64.4-26.5,99.5
		c36.3-15.8,74.1-27.3,113.5-33.6c0.6,2.3,1.1,3.9,1.5,5.5c4.4,15.3,14.3,24.4,30.1,27c10.9,1.8,21.6,0.7,32.2-1.8
		c15.7-3.7,30.2-10.5,43.7-19.3c27.2-17.6,51.1-39,70.9-64.7c8.3-10.8,14.9-22.5,16.7-36.3c0.7-5.7-0.1-11-3.3-16.5
		c-1,1.9-1.7,3-2.3,4.1c-6.7,12.3-12.9,24.9-20.2,36.7c-14,22.5-31.8,41.5-54.7,55.3c-2,1.2-4.7,2-6.9,1.8
		c-20.2-2.3-40.3-5-60.5-7.2c-3.3-0.4-5.1-1.5-5.1-4.6c-0.1-9.9-1.7-20.2,0.2-29.8c9.7-50,32.5-93.8,66.1-131.9
		c8.8-10,19.6-17.5,32.2-22.3c14.4-5.4,29.1-7.2,44.2-3.7c8.3,1.9,11.4,6.6,9,14.7c-2.9,10-7.1,19.7-10.7,29.5
		c-0.6,1.6-1.3,3.2-2.1,5c10.4,1.2,10.4,1.2,14.8-7.2c13-24.2,25.9-48.4,38.9-72.7c0.8-1.5,1.5-3.1,2.4-5.1
		c-2.5-0.2-4.1-0.3-5.8-0.4c-27.5-1.5-53.3,5.1-77.6,17.4c-42.7,21.6-77.4,52.9-106.3,90.7c-20.1,26.3-36.3,54.7-44.1,87.2
		c-2.6,10.6-3.6,21.6-5.2,31.6c-19.9,3.1-40,6.3-60,9.1c-1.6,0.2-4.6-2-5.2-3.7c-0.9-2.5-0.7-5.7,0-8.3c1.8-6.4,3.8-12.8,6.4-18.9
		c15.5-36.3,31.4-72.4,46.8-108.7c11.2-26.4,22.1-52.9,28-81.1c1.3-6.1,1.6-12.3,2.3-18.4c-44.9,17.9-89,35.5-134.3,53.5
		c1.2-3.1,1.9-4.8,2.6-6.5c12.8-29.6,25.9-59.2,38.5-88.9c14.1-33.5,27.7-67.1,35.9-102.7c1.9-8,2.8-16.2,4.1-24.2
		C1300.3,103.9,1261.8,119.2,1223.3,134.5z M1786.9,273.1c-0.6,1.6-1,2.9-1.5,4.1c-10.3,24.2-20.7,48.4-31,72.6
		c-18.9,44.4-37.8,88.8-56.6,133.3c-1.2,2.8-2.9,2.9-5.3,3.2c-20.1,2.8-40.2,5.6-60.3,8.7c-7.4,1.2-10.1-1-8.4-8.7
		c1.2-5.5,2.7-11,4.9-16.2c12.8-30.4,25.8-60.6,38.9-90.9c13.5-31.2,27.3-62.2,35.8-95.3c2.3-8.8,3.2-17.9,4.9-27.5
		c-30.9,12.6-60.4,24.7-90.4,37c0.9,2.8,2,6,3.1,9.3c4.7-1.7,8.8-3.2,12.9-4.6c4.3-1.4,8.5-3.1,12.9-4c10.8-2.3,15.5,2.4,12.7,13.1
		c-1.8,7.1-4,14.1-6.9,20.8c-15.2,35.1-30.8,70.1-46,105.2c-9.7,22.5-19.7,44.9-23.8,69.3c-1.9,11.1-3,22.3-4.5,33.6
		c19.3-7.1,37.4-14.2,55.8-20.4c18.5-6.3,37.6-10.8,57.4-13.8c-0.2,1.6-0.3,2.6-0.4,3.6c-2.3,14.6,3.4,22.1,18.1,23.9
		c11.2,1.4,21.9-1.3,32.4-4.7c17.8-5.8,34.5-14,50.2-24.4c12.3,10.7,26.8,12.9,42.3,11.8c22.8-1.7,38.6-15,42.3-37.5
		c1.6-9.7,1.4-20-0.2-29.7c-3.3-19.3-15.5-31.3-34.9-35.2c-6-1.2-12.3-1.6-18.4-1.2c-25.6,1.4-41.3,15.7-45,41.1
		c-2.1,14.3-0.6,28.2,6.2,41.2c-16.5-1.8-32.7-3.5-49.5-5.3c1.1-3.8,1.7-7.7,3.2-11.3c11.4-27.3,22.7-54.7,34.4-81.9
		c16.6-38.4,33.6-76.5,50.3-114.8c1.4-3.1,3.1-4.4,6.7-4.3c11.3,0.3,22.7,0.1,34,0.1c8.2,0,9.1-0.9,10.4-10c-14.8,0-29.4,0-45.1,0
		c11.3-25.4,22.3-49.9,33.6-75.2c-14.9,5.8-29.1,11.3-43.3,17c-1.4,0.6-2.3,2.6-3.1,4.2c-4.9,10.4-9.9,20.7-14.5,31.2
		c-6.8,15.4-19.1,21.9-35.2,22.7c-3,0.1-6,0.3-9,0.3c-8.6,0.2-9.3,0.8-11.3,9.9C1759.2,273.1,1772.8,273.1,1786.9,273.1z
		 M648.6,478.9c36.5,72.4,73.5,146,110.6,219.6c0.3-0.1,0.6-0.3,0.9-0.4c-20.5-62.7-40.9-125.5-61.4-188.2c0.3-0.1,0.7-0.3,1-0.4
		c44,66,88,132.1,132.2,198.4c27.9-65.5,53.4-131.2,77.5-197.9c-1,0.3-1.4,0.3-1.6,0.5c-1,0.9-2,1.8-2.9,2.7
		c-22.2,21.9-45.8,42.2-72,59.4c-1.7,1.1-3.1,3-3.9,4.9c-4.9,11.3-9.6,22.6-14.3,33.9c-42.5-64.8-74.1-134.4-98-206.9
		C694,429.3,671.6,453.8,648.6,478.9z M148.5,741c2.6,0,4,0,5.5,0c13.7,0,27.3-0.1,41,0.1c3.3,0,5.4-0.9,7.5-3.6
		c48-61,96.1-121.9,144.2-182.9c1.1-1.4,2-2.8,2.8-3.8c-12.2-6.1-24.1-12-36.5-18.2C258.7,601.4,204,670.7,148.5,741z M249.5,741
		c15.2,0,29.4-0.1,43.5,0.1c3.6,0.1,5.7-1.1,7.9-3.9c44.6-55.8,89.4-111.5,134.1-167.2c1.1-1.4,2.1-2.8,3.5-4.7
		c-1.3-0.1-1.9-0.2-2.5-0.3c-14.3-0.7-28.6-1.5-42.9-1.9c-2-0.1-4.7,1.4-6,3c-45,56.8-89.8,113.7-134.7,170.6
		C251.7,737.9,250.9,739.1,249.5,741z M150.2,72.1c42.6,56.5,84.5,112,126,167c10.5-8.9,20.4-17.4,30.6-26
		C272,167,237,120.6,202,74.2c-0.8-1-2.4-2.1-3.6-2.1C182.7,72,167.1,72.1,150.2,72.1z M250,72.1c1.7,2.3,2.6,3.7,3.6,5
		c28.5,37.7,57,75.4,85.3,113.3c3.5,4.8,6.6,5.5,12.3,4.4c12.2-2.5,24.6-3.7,37-5.5c-0.1-0.1-0.3-0.8-0.6-1.3
		c-28.6-37.9-57.1-75.8-85.7-113.6c-0.8-1.1-2.3-2.2-3.5-2.3C282.5,72,266.8,72.1,250,72.1z M1734.1,558.7
		c-6.3,30-12.5,59.5-18.8,89.3c6.7,0,12.4,0.2,18-0.1c1.3-0.1,3.3-1.6,3.5-2.8c3.5-16.8,6.7-33.6,9.9-50.4c0.5-2.7,0.7-5.4,1.1-8.2
		c0.3,0,0.6,0,0.9,0c5.8,20.5,11.5,40.9,17.3,61.2c9.5,0,18.6,0,27.8,0c6.2-29.7,12.4-59,18.7-89c-6.4,0-11.9,0.1-17.3-0.1
		c-2.8-0.1-4.1,0.8-4.6,3.7c-1.7,9-3.9,17.9-5.7,26.9c-1.9,9.5-3.5,19-5.5,29.7c-0.8-2.5-1.2-3.9-1.6-5.3
		c-4.9-16.9-9.8-33.9-14.9-50.8c-0.5-1.6-2.5-3.8-3.8-3.9C1751,558.5,1742.8,558.7,1734.1,558.7z M1399.9,618.1
		c-0.7-2.4-1.3-4.2-1.9-6c-4.8-16.5-9.6-32.9-14.3-49.4c-0.8-2.8-1.9-4.2-5.1-4c-6.7,0.3-13.3,0.2-20,0c-3.2-0.1-4.2,1.1-4.9,4.1
		c-3.6,17.6-7.3,35.2-11.1,52.8c-2.2,10.7-4.5,21.3-6.8,32.2c7.4,0,14.1,0,21.5,0c3.9-20.5,7.8-40.9,11.7-61.2
		c0.2,0.5,0.6,1.3,0.9,2.2c5.2,18.3,10.4,36.5,15.3,54.8c0.9,3.2,2,4.7,5.7,4.5c6.3-0.3,12.7-0.3,19,0c3.2,0.1,4.6-0.8,5.3-4.2
		c2.2-11.6,4.9-23.1,7.3-34.7c3.5-16.6,7-33.2,10.6-50.5c-6.1,0-11.7,0.2-17.3-0.1c-2.9-0.1-4.1,0.8-4.7,3.7
		C1407.6,580.6,1403.9,598.8,1399.9,618.1z M1911.2,550.6c-0.6-0.3-0.9-0.6-1.1-0.6c-5.7,0-11.4,0.6-17-0.2
		c-9.1-1.3-14.5,2.3-19.3,9.9c-7.5,12.1-16.2,23.4-25,36c2.7-12.8,5.2-24.6,7.8-36.8c-8.1,0-15.7,0-23.7,0
		c-6.2,29.6-12.5,59.1-18.7,88.8c8.4,0,16,0,23.7,0c1.9-9.2,4-18.1,5.6-27.1c0.7-4.3,2.9-6.4,7.1-7.6c3.5,11.6,7,23.1,10.5,34.6
		c8.9,0,17.5,0,26.4,0c-0.7-2.3-1.2-4.2-1.9-6.1c-4.2-12.1-8.2-24.3-12.6-36.3c-1.4-3.9-1.1-6.6,1.7-9.8
		c11.4-13.5,22.4-27.3,33.6-40.9C1909.3,553.3,1910.3,552,1911.2,550.6z M1504,647.7c12,0,23.4,0.7,34.7-0.1
		c22.4-1.7,37.4-14.7,42.5-36.5c1.6-6.9,2.2-14.2,2-21.3c-0.5-18.2-11.9-29.8-30.1-30.8c-9-0.5-18-0.1-27-0.3
		c-2.8-0.1-3.7,1.1-4.2,3.7c-1.4,7.2-3,14.3-4.5,21.5C1513,605,1508.5,626.2,1504,647.7z M1589.5,648c7.1,0,13.4-0.1,19.7,0.1
		c3,0.1,4.4-0.8,5-3.9c1.5-8.2,3.3-16.3,5.2-24.4c0.4-1.6,2-2.9,3-4.3c1.3,1.3,3.1,2.3,3.7,3.8c3.3,8.4,6.2,16.9,9.5,25.2
		c0.5,1.4,2.2,3.3,3.4,3.4c7.6,0.3,15.2,0.2,23.8,0.2c-5.5-12.8-10.7-25-16-37.2c1.6-1,2.9-1.7,4.1-2.5
		c10.3-6.6,15.1-19.2,12.2-31.9c-2.2-9.7-10.5-15.8-23.2-17.3c-1.3-0.1-2.7-0.3-4-0.3c-7.8-0.1-15.7,0-23.5-0.2
		c-3.1-0.1-4.3,1-4.9,4c-2.7,13.5-5.6,27-8.5,40.6C1595.9,617.9,1592.8,632.5,1589.5,648z M939.5,648c7.9,0,15-0.2,22.1,0.1
		c3.4,0.1,5.4-1.1,7.3-3.9c5.7-8.7,11.6-17.3,18-26.7c2.8,9.5,5.3,18.2,8,26.7c0.5,1.4,1.9,3.6,3,3.6c7.9,0.3,15.8,0.2,24.2,0.2
		c-5.1-14.3-9.7-27.8-14.7-41.2c-1-2.8-0.8-4.8,1.1-7.2c6.6-8.6,12.9-17.3,19.4-26c3.4-4.6,6.8-9.3,11-14.9
		c-8.4,0-15.7,0.2-22.9-0.1c-3.3-0.1-5.1,1.1-6.8,3.8c-5.1,8.1-10.5,16-16.3,25c-2.4-9.1-4.4-17.1-6.8-25c-0.4-1.4-2-3.4-3.1-3.5
		c-7.4-0.3-14.9-0.2-23-0.2c4.1,12.5,7.8,24.4,11.9,36.1c1.4,4,1.1,6.9-1.5,10.5c-9.4,12.5-18.5,25.3-27.6,38
		C941.7,644.5,940.9,645.9,939.5,648z M1098.5,558.7c-9.8,0-19.1-0.2-28.4,0.2c-1.4,0-3.3,2-4.1,3.5c-14,27.2-27.8,54.5-41.7,81.8
		c-0.6,1.1-0.9,2.3-1.4,3.9c2.6,0,4.6,0,6.5,0c5.8-0.1,12.5,1.5,17.1-1c3.7-1.9,4.8-8.7,7-13.3c0.1-0.3,0.2-0.7,0.4-0.9
		c0.9-0.6,1.8-1.6,2.8-1.6c8.3-0.1,16.6-0.1,25.1-0.1c0.4,5.9,0.8,11.2,1.1,16.5c7.9,0,15.2,0,22.9,0
		C1103.5,618,1101,588.5,1098.5,558.7z M1325.6,647.7c-2.5-30-5-59.3-7.5-89.1c-9.1,0-17.7,0.2-26.3-0.1c-3.4-0.1-5,1.1-6.5,4
		c-13.5,26.9-27.2,53.7-40.9,80.6c-0.7,1.4-1.3,2.9-2.2,4.8c3.3,0,5.8,0,8.3,0c5.3-0.1,11.6,1.5,15.7-0.8c3.6-2,4.6-8.5,6.9-12.9
		c0.6-1.2,1.8-2.9,2.8-2.9c8.6-0.2,17.2-0.1,25.9-0.1c0.3,6,0.6,11.2,0.8,16.5C1310.3,647.7,1317.6,647.7,1325.6,647.7z
		 M1470.9,647.8c0.4-1.7,0.8-3.2,1.1-4.6c4.2-20.2,8.5-40.4,12.5-60.6c0.7-3.5,2.1-4.7,5.6-4.4c4.8,0.3,9.6,0.1,14.8,0.1
		c1.4-6.5,2.8-12.7,4.3-19.5c-20.7,0-40.6,0-60.5,0.1c-0.8,0-2.3,1-2.4,1.8c-1.4,5.7-2.5,11.5-3.8,17.8c6.8,0,12.7,0,19.2,0
		c-4.8,23.4-9.6,46.3-14.3,69.4C1455.5,647.8,1462.9,647.8,1470.9,647.8z M1194.7,648c6.7,0,12.7-0.3,18.7,0.1
		c3.9,0.2,5.4-1,6.2-4.9c3.9-19.9,8.3-39.7,12.2-59.7c0.9-4.4,2.6-5.8,6.9-5.4c3.6,0.4,7.3,0.2,11,0c1.1-0.1,2.9-0.9,3.1-1.6
		c1.5-5.7,2.6-11.5,3.9-17.8c-20.6,0-40.4,0-60.2,0.1c-1,0-2.6,1.4-2.9,2.4c-1.4,5.4-2.4,10.9-3.7,17.1c6.6,0,12.7,0,19.3,0
		C1204.3,601.7,1199.6,624.5,1194.7,648z M1116.4,648c17.3,0,33.9,0,50.5-0.1c1,0,2.6-1.1,2.8-2c1.4-5.5,2.4-11,3.7-17.4
		c-9.9,0-19.2,0-29,0c5-23.7,9.7-46.5,14.6-69.6c-8.3,0-15.9,0-23.7,0C1128.9,588.6,1122.7,618,1116.4,648z M1344.1,697.4
		c4.2,15,8.1,29.3,12.1,43.6c5.5,0,10.5-0.2,15.4,0.1c3,0.1,3.9-1.1,4.5-3.9c1.8-9.8,4-19.6,6-29.3c2-9.8,4-19.5,6.2-29.9
		c-3.3,0-6.1,0.2-8.9-0.1c-4.1-0.4-6.1,0.7-6.9,5.3c-2,12-4.7,23.8-7.1,35.9c-0.3-0.4-0.5-0.7-0.6-1c-2.9-10.1-5.8-20.1-8.7-30.2
		c-4.3-15-4.2-15-19.8-14c-0.3,0-0.6,0.2-1.4,0.4c-4.5,21.9-9.1,44-13.7,66.4c5,0,9.6,0,14.8,0
		C1338.6,726.6,1341.3,712.5,1344.1,697.4z M1384.9,229.3c17.4,0.2,34.2-16.3,34.4-33.7c0.1-14.2-9.2-23.5-23.4-23.5
		c-17.7,0-33.6,15.8-33.9,33.5C1361.8,220.3,1370.3,229.2,1384.9,229.3z M1674.7,229.3c17.5,0.5,34.7-16.2,34.8-33.8
		c0.1-14.1-9.4-23.5-23.6-23.4c-17.9,0.1-33.8,16.1-33.8,34.1C1652.1,220.4,1660.5,229,1674.7,229.3z M1792.2,678.2
		c-2.7,13.9-5.4,27.2-8.3,41.9c-4.2-14.8-8.1-28.3-12.1-42.2c-5.3,0-10.5,0.1-15.6-0.1c-2.7-0.1-3.8,0.8-4.3,3.5
		c-1.4,7.7-3.1,15.3-4.7,23c-2.5,12-4.9,24.1-7.5,36.6c4,0,7.5-0.2,10.9,0.1c3,0.2,4-1.1,4.5-3.9c2.4-13,5-26,7.6-39.3
		c0.5,1.5,1,2.9,1.3,4.3c3.2,11.7,6.4,23.4,9.8,35.1c0.4,1.4,1.9,3.5,3.1,3.6c5.6,0.4,11.2,0.2,17,0.2c4-19.4,8-38.3,11.9-57.2
		c0.4-1.8,0.6-3.6,1-5.6C1802,678.2,1797.4,678.2,1792.2,678.2z M1316.9,703.7c0.2-15.5-6.3-24.7-18.4-26.3
		c-12-1.6-22.2,2-29.4,11.9c-7.7,10.6-10.4,22.6-8,35.5c1.6,8.8,7.1,14.4,16.1,16.4c13.1,2.9,25.6-2.2,32.8-13.6
		C1314.7,719.8,1316.7,711.3,1316.9,703.7z M1566.8,703.7c0.1-15.8-6.5-24.9-18.6-26.4c-12.6-1.6-23,2.6-30.3,13.3
		c-6.2,9.2-8.5,19.5-7.6,30.4c1,12,7.9,19.3,19.3,20.6c12.3,1.4,22.3-2.7,29.4-13.1C1564.5,720.6,1566.5,711.6,1566.8,703.7z
		 M1593.6,740.7c9,0,17.4,0.7,25.6-0.2c13.9-1.5,23.3-9.5,27-23.1c1.6-5.8,2.3-12.2,2-18.2c-0.5-13-8.8-20.7-21.8-21.2
		c-5.5-0.2-11,0.1-16.5-0.1c-2.8-0.1-3.7,1-4.1,3.6c-0.6,3.8-1.5,7.5-2.3,11.2C1600.2,708.6,1596.9,724.4,1593.6,740.7z
		 M1085.9,714.8c1.2-0.8,2.2-1.3,3.2-2c7.1-4.9,10.3-14.3,7.9-23c-1.9-6.7-7.8-11-16.9-11.6c-5.6-0.4-11.3,0-17-0.2
		c-3-0.1-4,1.1-4.5,3.9c-1.3,7-2.9,14-4.4,21c-2.6,12.5-5.1,25.1-7.7,37.9c5.7,0,11,0,16.3,0c1.4-6.6,2.7-13,4.1-19.3
		c0.3-1.2,1.4-2.3,2.1-3.4c0.9,1,2.2,1.8,2.7,3c2.2,5.6,4,11.3,6.2,16.8c0.5,1.3,2.3,2.9,3.6,3c4.8,0.4,9.6,0.1,15.2,0.1
		C1093.1,731.9,1089.5,723.4,1085.9,714.8z M1665.7,678.1c-4.4,21.1-8.6,41.7-12.9,62.7c5.7,0,10.8,0,16.3,0c1.3-6,2.4-12,3.9-18
		c0.4-1.7,1.7-3.2,2.5-4.8c1.1,1.5,2.5,2.9,3.1,4.5c2,5.1,3.6,10.4,5.7,15.5c0.5,1.2,2.1,2.7,3.3,2.8c4.9,0.3,9.9,0.1,15.6,0.1
		c-3.8-9.1-7.4-17.6-11-26.3c1.3-0.8,2.3-1.4,3.2-2c7-4.9,10.2-14.1,8-22.6c-1.9-7.1-7.8-11.5-17.1-12
		C1679.6,677.8,1673,678.1,1665.7,678.1z M1670.8,647.8c8.4,0,16.1,0,24.1,0c6.2-29.6,12.5-59,18.8-89.1c-7.7,0-14.6-0.1-21.6,0.1
		c-1.1,0-2.8,1.7-3.1,2.8c-1.4,5.5-2.5,11-3.6,16.6C1680.6,601.2,1675.8,624.2,1670.8,647.8z M1202.6,740.8
		c-1.8-21.2-3.5-41.9-5.2-62.8c-6.2,0-11.7,0.2-17.1-0.1c-3.2-0.2-4.7,1.1-6,3.8c-9,18.4-18.2,36.7-27.3,55c-0.6,1.2-1,2.6-1.7,4.3
		c2.7,0,4.7-0.3,6.7,0.1c7.3,1.3,12-1.1,13.9-8.6c0.3-1.3,2-3.1,3.1-3.1c5.6-0.3,11.2-0.1,17-0.1c0.3,4.2,0.6,7.8,0.9,11.6
		C1192.1,740.8,1197,740.8,1202.6,740.8z M1128.1,701.7c0.3-10.1,0.3-10.1,8.9-10.1c4.1,0,8.2,0,12.6,0c0.9-4.7,1.7-8.9,2.7-13.6
		c-7.2,0-13.8-0.1-20.4,0c-5.3,0.1-12-1.5-15.4,1.1c-3.1,2.4-2.9,9.4-3.9,14.4c-3.3,15.6-6.5,31.2-9.8,47.4c11.7,0,23,0.1,34.3-0.1
		c0.9,0,2.4-1.2,2.7-2.1c1-3.7,1.6-7.4,2.4-11.7c-6.9,0-13.3,0-20.1,0c0.9-4.3,1.7-8,2.5-11.9c6.4,0,12.3,0,18.6,0
		c1-4.5,1.9-8.6,3-13.5c-3.2,0-6,0-8.8,0C1134.3,701.7,1131.4,701.7,1128.1,701.7z M1256.5,682c-6.9-4.3-15.9-5.9-23-4.5
		c-7.5,1.6-13.4,5.3-15.7,13c-2.4,7.8-0.6,14.8,5.1,20.7c2,2,4.2,3.8,6.3,5.7c2.4,2.2,5,4.5,3.4,8.1c-1.7,3.9-5.5,3.6-8.7,2.9
		c-4.5-1-8.8-2.6-13.2-4c-2.1,14.3,1.1,18.1,15.4,18.1c1.7,0,3.3-0.1,5-0.3c8.3-1.2,15.1-4.8,17.6-13.3c2.7-9.1,0-16.7-7.3-22.7
		c-2.1-1.7-4.5-3.2-5.9-5.3c-1.3-1.8-2.5-4.9-1.7-6.6c0.7-1.6,4-2.9,6-2.7c3.7,0.3,7.3,1.7,11.4,2.8
		C1252.9,690,1254.6,686.2,1256.5,682z M1436.8,680.5c-6.6-1.2-12.5-3-18.4-3.3c-10.1-0.5-17.8,4.6-20.8,12.5
		c-3.1,8.2-0.6,16.5,6.9,23.3c2.2,2,4.8,3.8,6.5,6.2c1.1,1.5,1.6,4.2,1,5.8c-0.5,1.4-2.9,2.5-4.7,2.8c-2,0.4-4.3,0-6.4-0.6
		c-3.6-1-7.1-2.4-10.7-3.7c-1.2,16,1.5,18.9,17.3,18.2c1.3-0.1,2.7-0.2,4-0.4c8.1-1.3,14.6-5,16.9-13.5c2.4-8.7,0.1-16.1-6.8-22
		c-2.3-1.9-5-3.6-6.7-6c-1.3-1.8-2.1-4.8-1.4-6.7c0.5-1.4,3.8-2.6,5.7-2.4c3.9,0.4,7.6,1.8,11.7,2.8
		C1432.6,689.8,1434.4,685.9,1436.8,680.5z M1468,741c5,0,9.3,0.2,13.6-0.1c1.2-0.1,2.9-1.8,3.3-3.1c1.3-4.8,2.1-9.7,3.1-14.6
		c2.1-10.4,4.3-20.7,6.5-31.5c4.7,0,9,0,13.4,0c1-4.7,1.8-9,2.8-13.7c-14,0-27.3,0-40.6,0.1c-1,0-2.7,0.9-2.9,1.8
		c-1,3.8-1.6,7.7-2.5,12.1c4.7,0,8.8,0,13.2,0C1474.6,708.5,1471.4,724.4,1468,741z M1721.9,678.2c-4.3,20.9-8.6,41.6-12.9,62.6
		c5.9,0,11.1,0,16.7,0c4.3-20.9,8.6-41.6,12.9-62.6C1732.5,678.2,1727.4,678.2,1721.9,678.2z"/>
	<path class="st0" d="M1384.9,229.3c-14.6-0.2-23.1-9-22.9-23.7c0.3-17.7,16.2-33.4,33.9-33.5c14.2,0,23.5,9.3,23.4,23.5
		C1419.2,213,1402.3,229.6,1384.9,229.3z"/>
	<path class="st0" d="M1674.7,229.3c-14.2-0.4-22.5-8.9-22.5-23.1c0-17.9,15.9-33.9,33.8-34.1c14.2-0.1,23.7,9.3,23.6,23.4
		C1709.4,213.1,1692.2,229.8,1674.7,229.3z"/>
	<path class="st0" d="M1070.5,704.9c4.3,0.7,8,0,9.4-3.7c1-2.5,1-5.9,0-8.4c-0.6-1.4-4-1.6-6.4-2.5c-0.9,4.2-1.6,7.2-2.2,10.3
		C1070.9,701.9,1070.8,703.2,1070.5,704.9z"/>
	<path d="M614.2,405.3c14.2-12.5,26.9-25.5,37-41.1c13.4-20.8,14.3-41.7,1.1-62.9c-1.2-2-2.3-4-3.5-6.1c-0.1-0.1,0-0.3,0-0.9
		c4,0.3,8.1,0.6,12.1,0.9c19.4,1.3,38.9,2.6,58.4,3.7c3.4,0.2,4.4,1.6,5.9,4.4c6.3,12.2,3.2,21.5-5.3,32.1
		c-29.3,36.8-59,73.1-94.5,104.3c-34.2,30.1-73,51.2-118.3,58.8c-45.9,7.7-91.2,6.5-134.1-13.7c-39-18.3-67.9-46.7-81.4-88.6
		c-8.1-25.1-9.5-50.8-3.2-76.4c10.5-42.7,46.6-71.9,91.2-74.7c37.1-2.4,70.3,8.9,101,28.8c27.3,17.7,50.9,39.9,73.1,63.4
		c17.9,19,34.9,38.9,52.3,58.5C608.7,398.6,611.2,401.7,614.2,405.3z"/>
	<path d="M779.4,268c18.2-22.1,35.4-43.6,53.4-64.6c19.7-23.1,40.8-44.8,65.2-63.2c34.3-25.9,72.7-39.3,116-36.2
		c17.7,1.3,34.1,6.2,47.3,18.8c14.5,13.9,16.4,31.3,13.3,49.9c-3.1,18.5-12.3,33.6-26,46.1c-20.9,19.2-46.1,30.2-72.8,38.1
		c-32.8,9.7-66.6,13.5-100.6,13.7c-31,0.2-61.9-1.2-92.9-1.9C781.8,268.7,781.3,268.5,779.4,268z"/>
	<path d="M1231.9,487.7c-7.7,4.1-15,9.1-23,12c-11.2,4-17.5-4.1-14.1-18.1c12.1,1.4,24.3,2.8,36.6,4.2
		C1231.5,486.4,1231.7,487,1231.9,487.7z"/>
	<path d="M1068.1,487.4c-12.2,15.1-38.9,21.9-52.7,13.6C1033.6,496.3,1050.8,491.8,1068.1,487.4z"/>
	<path d="M1472.2,502.8c-14.8,4-29.6,6.6-43.8-2.3c0-0.6,0.1-1.3,0.1-1.9c14.6,0.8,29.1,1.5,43.7,2.3
		C1472.3,501.5,1472.2,502.1,1472.2,502.8z"/>
	<path d="M1807.5,434c0,17.5,0,34.6,0,51.9c4.1,0,7.8,0,12.1,0c0-5,0-9.9,0-14.7c8.4-2.2,9.3-1.7,12.7,5.3c3,6.3,6,12.6,9.4,19.5
		c-8.1,3-16.1,3-24.1,1.5c-14-2.7-22.7-11.3-25.9-25.2c-2.1-8.9-1.9-17.9,0.5-26.7c4.8-17.8,21.2-27.3,41.5-24.3
		c16.6,2.5,27.1,12,29.2,28.7c1,8.2,0.2,16.9-1.3,25.1c-0.9,5.1-4.7,9.6-7.3,14.3c-0.5-0.1-1.1-0.2-1.6-0.3c-3.7-7-7.3-14-11.1-21.3
		c6.6-5.2,8.9-11.9,7.5-19.9c-1.4-7.9-6.7-13.5-14.7-13.9C1825.7,433.6,1816.9,434,1807.5,434z"/>
	<path d="M1734.6,497.6c12.8,0,25.2,0,37.5,0c-7.9,5.2-16.2,8.3-25.4,8.1C1741.4,505.6,1736.6,503.9,1734.6,497.6z"/>
	<path d="M1820.1,459.1c0-5,0-9.2,0-14.1c3.3,0,6.4,0,9.5,0c5.3,0.1,7.5,2.2,7.4,7.1c-0.1,4.7-2.2,6.8-7.1,6.9
		C1826.8,459.2,1823.7,459.1,1820.1,459.1z"/>
	<path d="M1532,627.8c3.4-16,6.6-31.6,10-47.1c0.2-1,1.7-2.4,2.8-2.6c7.2-1.1,13.1,2.9,14.1,10.2c1.4,10.3,0.2,20.3-5.2,29.4
		C1548.9,625.5,1542,629.2,1532,627.8z"/>
	<path d="M1624.2,596.7c1-5,2-9.8,3-14.5c0.6-2.8,0.5-6,5.1-5.4c4.1,0.5,6.9,2.2,7.5,6.5C1641.1,592.4,1634.4,598.3,1624.2,596.7z"
		/>
	<path d="M1080.5,611.9c-5.2,0-10.7,0-16.9,0c5.4-11.9,10.6-23.4,15.8-34.9c0.4,0,0.7,0.1,1.1,0.1
		C1080.5,588.5,1080.5,599.9,1080.5,611.9z"/>
	<path d="M1300.2,611.9c-5.5,0-10.9,0-17,0c5.5-12.1,10.8-23.8,16.1-35.5c0.3,0,0.7,0.1,1,0.1
		C1300.2,588.3,1300.2,600.1,1300.2,611.9z"/>
	<path d="M1301.6,703.6c-2.4,6.4-4.3,13.1-7.5,19.1c-2.6,5-7.7,6.4-11.9,4.8c-4.8-1.8-5.7-6-5.2-10.3c0.6-5.4,1.8-10.7,3.3-16
		c0.6-2.3,2.3-4.4,3.9-6.3c2.9-3.4,6.7-5.3,11.1-3.5c5.1,2.2,4.9,7,4.8,11.5C1300.7,703.2,1301.1,703.4,1301.6,703.6z"/>
	<path d="M1551.5,703.7c-2.5,6.4-4.5,13-7.5,19.1c-2.2,4.2-6.5,6.3-11.5,4.8c-5.2-1.6-6.2-6.1-5.4-10.5c1.1-6.4,2.5-13,5-19
		c2.6-6,7.9-8.2,12.4-7c4.1,1.1,5.9,5,5.7,12C1550.6,703.4,1551.1,703.5,1551.5,703.7z"/>
	<path d="M1613,726.5c2.4-11.5,4.7-23,7.1-34.3c7.7-1,11.9,1.7,11.6,8.7c-0.3,6.3-1.6,12.8-4,18.7
		C1625.2,725.7,1619.8,727.6,1613,726.5z"/>
	<path d="M1070.5,704.9c0.2-1.7,0.4-3,0.6-4.3c0.6-3.1,1.3-6.1,2.2-10.3c2.4,0.9,5.9,1.1,6.4,2.5c1,2.4,1,5.9,0,8.4
		C1078.5,704.9,1074.9,705.6,1070.5,704.9z"/>
	<path d="M1676.7,704.8c0.7-3.6,1.2-6.9,2.2-10c0.5-1.5,2.6-3.9,3.1-3.7c2,0.9,4.7,2.2,5.3,4C1689,701,1684.4,705.4,1676.7,704.8z"
		/>
	<path d="M1185.1,691.5c0,7.9,0,15.7,0,24c-3.6,0-7.3,0-11.8,0c3.6-8.2,7.1-16.1,10.7-24C1184.4,691.5,1184.8,691.5,1185.1,691.5z"
		/>
</g>
</svg>
