<?xml version="1.0" encoding="utf-8"?>
<!-- Generator: Adobe Illustrator 23.0.3, SVG Export Plug-In . SVG Version: 6.00 Build 0)  -->
<svg version="1.1" id="Calque_1" xmlns="http://www.w3.org/2000/svg" xmlns:xlink="http://www.w3.org/1999/xlink" x="0px" y="0px"
	 viewBox="0 0 2048 801" style="enable-background:new 0 0 2048 801;" xml:space="preserve">
<style type="text/css">
	.st0{fill:#FFFFFF;}
</style>
<g>
	<path class="st0" d="M5,802c2.1-3,4.2-6,6.4-8.9c73.2-95,146.5-189.9,219.7-284.9c1-1.3,1.9-2.7,3.1-4.2
		c-10.7-14.4-20-29.6-26.4-46.3c-23.2-60.4-23.9-120.9,0.1-181.2c1.4-3.6,0-5.5-1.8-7.9C139,181.1,72,93.5,4.9,6C3.8,4.5,3,2.7,2,1
		c109.3,0,218.7,0,328,0c0.2,0.4,0.4,0.9,0.7,1.3c40.7,52.8,81.3,105.5,122.1,158.3c0.8,1,1.8,2.1,2.9,2.5
		c11.3,3.3,22.6,6.5,34.1,9.7c0.9-1.1,1.8-2.3,2.8-3.4c31.5-40.9,63.1-81.8,94.6-122.7C598.8,31.4,610.4,16.2,622,1
		c109.3,0,218.7,0,328,0c-3.5,5-7,10-10.5,14.9c-1.4,2-2.9,3.9-4.8,6.3c11.1-2.7,21.3-5.6,31.7-7.6c35.1-6.7,70.3-8.6,104.9,2.2
		c43,13.4,73.4,40.3,86.9,84.3c0.1,0.5,0.4,0.9,0.6,1.3c0.1,0.1,0.3,0.1,0.8,0.3c0.4-0.8,0.9-1.5,1.4-2.4
		c7.7-15.4,19.9-25.5,35.8-31.6c34-13.2,67.9-26.5,101.8-40.1c8.2-3.3,15.8-7.9,23.8-11.5c2.1-0.9,5.3-1.2,7.3-0.3
		c21.9,9.3,43.7,18.9,65.6,28.2c3,1.3,3.8,2.9,3.7,6c-0.3,17.3-0.5,34.6-0.7,52.4c30.8,1,56.7,13.3,73.5,40.9
		c16.5,27.2,16.4,55.8,3.9,85.8c18.8-11.3,37.3-20.4,57.1-27c19.7-6.6,39.9-10.2,60.2-11.1c1.8-7.4,3-14.3,5.2-20.9
		c17.8-54.2,79.6-82.4,130.1-59.3c23.3,10.6,38.4,28.7,45.8,53.2c0.5,1.5,0.9,3.1,1.3,4.7c0.5,0.2,0.9,0.4,1.4,0.6
		c3.1-6.3,6.8-12.4,9.2-18.9c2.1-5.4,5.2-8.4,10.6-10.5c57-21.9,114-44.2,170.9-66.3c1.7-0.6,3.3-1.2,6.2-2.3
		c-15.8,41.6-31.1,82.1-46.7,123.2c15.2,0,29.9,0,45.6,0c-0.8,2.2-1.3,3.7-1.9,5.1c-18.3,42.2-36.6,84.3-54.7,126.5
		c-1.5,3.6-3.3,4.9-7.3,4.8c-12.3-0.3-24.7,0-37-0.2c-3.5-0.1-5.6,0.8-6.6,4.3c-1,3.1-2.6,6.1-4,9.5c30.6,8.5,54.2,25.8,68.8,54
		c14.3,27.6,16,57,10.5,87.1c35.8,0,71.4,0,107.5,0c-1.1,1.5-2.2,3-3.4,4.4c-31.4,38.4-62.8,76.9-94.4,115.3
		c-2.3,2.7-2.9,4.9-1.6,8.4c4.3,11.7,8.3,23.6,12.2,35.4c0.6,2,0.6,4.6-0.1,6.6c-3.3,9.4-6.8,18.8-10.6,28c-1.5,3.6-1.2,6.1,1.6,9.2
		c30.4,34.3,60.7,68.7,91,103.1c1.3,1.5,2.3,3.2,3.4,4.8c-477.3,0-954.7,0-1432,0c-0.8-1.4-1.6-2.9-2.5-4.2
		c-44-57.5-88.1-115-132.1-172.5c-1-1.3-2.1-2.5-3.3-4c-1.2,1.4-2.2,2.5-3,3.6c-44.3,57.8-88.5,115.5-132.7,173.3
		c-0.9,1.1-1.5,2.5-2.2,3.8C227,802,116,802,5,802z M1125.4,218.2c1.7-2.9,3-5,4.3-7.1c9-15.2,15.4-31.3,19-48.6
		c12.5-60.7-18.3-114.1-77.2-133.6c-26.3-8.7-53.3-9.2-80.6-6.5c-29.5,3-57.3,11.8-84.3,23.8c-1.7,0.7-3.4,1.4-5.1,2
		c-0.2-0.3-0.3-0.6-0.5-0.9c8.6-11.3,17.2-22.5,26.4-34.6c-3.1,0-4.9,0-6.7,0c-95.7,0-191.3,0-287-0.1c-4.4,0-6.9,1.5-9.5,4.8
		c-42.5,55.4-85.2,110.6-127.8,166c-2.4,3.1-4.1,3.4-7.7,2.1c-11.8-4.1-23.7-7.7-35.8-11c-3.7-1-6.1-2.6-8.4-5.5
		c-39.1-50.8-78.3-101.6-117.4-152.5c-2-2.5-3.9-3.9-7.4-3.9c-96.7,0.1-193.3,0.1-290,0.1c-1.4,0-2.7,0.2-4.6,0.4
		c1.4,1.9,2.3,3.2,3.3,4.6C56.5,54.3,84.6,91,112.6,127.6c35.8,46.7,71.5,93.4,107.3,140.1c1.5,1.9,3.1,3.4,1.6,6.5
		c-17.6,37.2-22.1,76.5-18.3,117c3.9,40.8,17.8,77.7,43.5,109.9c0.7,0.9,1.3,1.8,2.2,3c-73.4,95.2-146.7,190.2-220.7,286.1
		c3.1,0,5.1,0,7,0c96.8,0,193.7,0,290.5,0.1c4.2,0,6.9-1.2,9.5-4.6c45.6-59.7,91.3-119.4,137-179c1.1-1.5,2.4-2.9,3.7-4.6
		c1.5,1.9,2.5,3.2,3.6,4.5c45.7,59.7,91.4,119.3,137,179c2.6,3.4,5.2,4.7,9.5,4.7c462.7-0.2,925.3-0.2,1388-0.3c1.9,0,3.8,0,6.6,0
		c-1.9-2.3-2.9-3.5-3.9-4.8c-26.2-29.8-52.4-59.5-78.7-89.2c-2.3-2.5-2.9-4.6-1.6-7.9c4.1-10.4,8-20.8,11.7-31.4
		c0.7-2.1,0.8-4.9,0.2-7.1c-4-12.5-8.2-25-12.7-37.3c-1.3-3.5-0.7-5.7,1.6-8.4c27.7-33.7,55.3-67.5,83-101.4
		c1.1-1.3,2.1-2.7,3.2-4.2c-33.1,0-65.5,0-98.1,0c0.3-1.3,0.5-2.6,0.9-3.9c5-16,6.3-32.3,5-48.9c-3.5-46.4-33.6-80.7-79.2-90.2
		c-2.3-0.5-4.7-1.1-7.3-1.7c4.6-10.4,9-20.1,13-29.9c1.2-3,2.9-3.9,6-3.8c12.5,0.2,25-0.1,37.5,0.1c3.6,0.1,5.5-0.9,7.1-4.5
		c14.8-34.6,29.8-69.1,44.8-103.6c0.6-1.5,1.1-3,1.9-5.1c-15,0-29.5,0-44.6,0c14.5-38.3,28.8-76,43.5-114.6c-2.7,1-4.2,1.5-5.7,2.1
		c-48.3,18.8-96.5,37.6-144.8,56.2c-3.8,1.4-5.9,3.5-7.3,7.3c-6.2,16.1-17.7,28.6-29.1,42.8c-0.3-5.5-0.6-9.6-0.8-13.8
		c-2.1-46.4-42.5-78.7-88.3-70.8c-41.4,7.2-70.8,40.6-72.8,82.7c-0.2,3.2-0.7,4.7-4.5,4.7c-41.9-0.2-79.9,13.1-115.3,34.4
		c-9.8,5.9-19.2,12.5-29.1,19c-2.4-2.6-4.8-5.3-7.2-8c23.3-27.5,32.3-58,16.7-91.5c-16-34.4-45.8-45.2-82.6-41.7
		c5.1-19.3,4.3-38.5,4.3-57.6c0-2.9-0.7-4.4-3.5-5.6c-18.1-7.7-36-15.6-54.2-23.3c-1.8-0.8-4.5-0.6-6.4,0.2
		c-11.1,4.9-21.8,10.7-33.1,15.2c-29.8,11.9-59.9,23.3-89.9,34.8c-27.2,10.4-40.6,38-31.7,65.8c2,6.3,3.9,12.7,6.3,19
		c0.6,1.7,2.5,3.5,4.2,4c7.8,2.4,15.7,4.3,23.6,6.5c3.6,1,7.2,2.1,11.1,3.2c-10.7,25.6-21.1,50.5-31.8,76.2
		C1166.5,236.4,1147.7,225.2,1125.4,218.2z M1161.8,162.5c-5.9,16.4-11.8,33.1-17.6,49.3c10.8,6.6,22.4,13.7,34.3,21
		c6.3-15.1,12.8-30.8,19.6-46.9c-9.6-2.6-18.8-5-27.8-7.7c-1.8-0.6-3.7-2.5-4.5-4.3C1163.9,170,1162.9,165.8,1161.8,162.5z"/>
	<path class="st0" d="M1161.8,162.5c1.1,3.3,2.1,7.5,3.9,11.4c0.8,1.8,2.7,3.7,4.5,4.3c9,2.8,18.2,5.1,27.8,7.7
		c-6.7,16.1-13.3,31.8-19.6,46.9c-11.9-7.3-23.5-14.4-34.3-21C1150,195.5,1155.9,178.9,1161.8,162.5z"/>
	<path class="st0" d="M1826.8,365.6c9.9,1.3,19.5,1.8,28.7,4c35.4,8.4,59.5,36.5,63.6,73c2.7,24.2-0.4,47.2-13.4,68.3
		c-0.1,0.2-0.1,0.6-0.1,1c15.1,0,30.2,0,45.3,0c15.1,0,30.3,0,46,0c-1.1,1.4-2,2.8-3.1,4.1c-23.3,28.5-46.6,57.1-70,85.5
		c-2.3,2.8-2.8,5.1-1.6,8.5c4.7,13,9.2,26.1,13.4,39.2c0.8,2.4,0.7,5.6-0.2,8c-3.9,11.3-8.1,22.6-12.5,33.7
		c-1.4,3.5-0.7,5.7,1.7,8.4c21.5,24.2,42.8,48.4,64.2,72.7c1.2,1.4,2.4,2.8,4.1,4.7c-1.7,0.2-2.9,0.5-4,0.5
		c-10.8,0.1-21.7,0.2-32.5,0.2c-440.7,0-881.3,0-1322,0.1c-5.8,0-9.2-1.8-12.7-6.4c-47.1-61.8-94.3-123.4-141.6-185
		c-1.1-1.4-2.2-2.8-3.6-4.6c-10.8,14-21.2,27.6-31.6,41.2c-38.5,50.3-77,100.5-115.4,150.8c-2.2,2.9-4.4,3.8-7.9,3.8
		c-87-0.1-174-0.1-261-0.1c-1.6,0-3.2-0.1-5.7-0.3c70.6-91.6,140.7-182.4,210.8-273.4c-1.1-1.3-2-2.4-3-3.6
		c-28.6-32.8-43.5-71.3-46.9-114.5c-2.8-36.5,1.1-72,17.4-105.2c4.1-8.4,3-13.2-2.4-20.2C172.1,184.1,113.8,107.7,55.3,31.4
		c-1.2-1.5-2.3-3.1-3.9-5.4c2.5-0.1,4.3-0.3,6-0.3c85.5,0,171,0,256.5-0.1c3.7,0,6,1.1,8.3,4.1C361,80.1,399.9,130.5,438.7,181
		c2.3,3,4.9,4.3,8.5,5.3c17,4.7,33.8,9.9,51.5,15.2c0.4-0.6,1.8-2.2,3.1-3.9c43-55.8,86.1-111.6,129.1-167.5c2.5-3.3,5-4.5,9.1-4.5
		c85.3,0.1,170.7,0.1,256,0.1c1.8,0,3.5,0,6.5,0c-21,27.4-41.3,53.9-61.6,80.5c0.1,0.2,0.3,0.3,0.4,0.5c1-0.8,2.1-1.6,3.1-2.5
		c35.8-31.3,75.9-54.8,122.9-64.6c32.5-6.8,65.2-9.2,97.4,0.6c37.7,11.5,64.4,34.8,72.7,74.7c6.1,29,0,56.7-13.8,82.6
		c-5.3,9.9-12,19.1-18.3,29.1c34,6.1,62.5,21.1,79.5,54.7c15.7-37.7,31.1-74.5,46.6-111.9c-10.6-2.9-20.5-6.5-30.7-8.1
		c-11.5-1.8-16.8-7.5-19.9-18.8c-6.3-23.1,2.8-42.4,25.2-51c34.5-13.3,68.8-27,103.2-40.6c1.7-0.7,3.5-1.3,5-2.3
		c8.9-6.7,17.6-5.9,27.2-0.7c9.6,5.2,20,9.1,30.2,13.2c3.4,1.4,4.2,3.3,4.3,6.7c0.8,22.9-3,45.1-10,67.7c2.3-0.8,3.9-1.4,5.5-2
		c18.4-7,36.9-7.4,54.9,0.8c31.4,14.2,43.9,52.6,28.2,85.6c-5.1,10.7-12.4,19.7-21.5,27.2c-1.5,1.2-3.1,3.4-3.1,5.1
		c0,17.6-4.2,34.3-9.1,51c-0.3,0.9-0.5,1.8-0.9,3.6c7.3-6.8,13.9-13.2,20.7-19.3c29.5-26.2,61.8-48,99.6-60.7
		c24-8.1,48.6-11.3,73.8-9.7c1.3,0.1,2.7,0.1,4,0.1c0.3,0,0.6-0.3,1.3-0.6c-0.2-1.6-0.4-3.4-0.7-5.1c-8.3-52.8,46.7-97.6,96.8-78.9
		c31.6,11.8,47,46.9,35.2,80.4c-0.8,2.2-1.6,4.3-2.6,6.8c6.1,0,11.9,0.2,17.6-0.1c1.5-0.1,3.2-1.6,4.3-2.9
		c14.2-16.2,28.7-32,37.6-52c0.5-1.2,2-2.2,3.3-2.7c39.4-15.4,78.8-30.7,118.2-46c0.7-0.3,1.6-0.4,4-1
		c-13.8,35.6-27.2,70.2-40.7,105.1c14.1,0,28.7,0,44.3,0c-0.8,2.3-1.3,3.8-1.9,5.2c-11.2,25.8-22.4,51.6-33.5,77.5
		c-1.5,3.5-3.3,4.6-7,4.5c-12.7-0.2-25.3-0.2-38,0c-1.6,0-4.1,1.1-4.7,2.4C1843,328.2,1835,346.9,1826.8,365.6z M877.5,37.2
		c-2.9,0-4.6,0-6.4,0c-74.7,0-149.3,0-224-0.1c-4.4,0-6.9,1.4-9.5,4.8c-44.1,57.3-88.3,114.6-132.3,171.9c-2.6,3.4-4.6,4.2-8.6,2.2
		c-18.2-9.2-37.5-15.6-57.6-19.2c-3.5-0.6-5.9-2-8.1-4.9c-38.7-50.3-77.5-100.6-116.2-150.9c-2-2.6-3.9-3.9-7.4-3.9
		c-75.5,0.1-151,0.1-226.5,0.1c-1.4,0-2.8,0.2-4.9,0.4c1.8,2.4,3.2,4.3,4.6,6.1c56.5,73.8,113.1,147.6,169.7,221.4
		c2.4,3.1,3,5.3,0.6,8.7c-2.4,3.4-4.1,7.2-5.9,11c-15.7,33.2-19.4,68.3-15.9,104.4c3.8,39.8,18.3,75.1,45.2,105.1
		c2.5,2.8,5.2,5.6,8,8.6c-67.5,87.5-134.8,174.8-202.8,262.9c3.1,0,4.7,0,6.4,0c76,0,152,0,228,0.1c4.1,0,6.6-1.3,9.1-4.6
		c49.8-65.1,99.6-130.2,149.5-195.3c4.1-5.4,4.1-5.4,8.3,0.1c49.5,64.7,99.1,129.3,148.5,194.1c3.2,4.2,6.4,5.6,11.6,5.6
		c438.5-0.1,876.9-0.1,1315.4-0.1c1.8,0,3.7,0,5.5,0c1.2-0.1,2.4-0.3,4.1-0.5c-1.5-1.8-2.6-3.1-3.7-4.3
		c-17.5-19.9-35-39.8-52.6-59.6c-2.1-2.4-2.8-4.3-1.5-7.5c4.8-12.3,9.4-24.6,13.7-37c0.8-2.4,0.9-5.6,0.1-8
		c-4.5-13.8-9.1-27.5-14-41.1c-1.2-3.4-0.8-5.7,1.5-8.5c19.5-23.6,38.9-47.4,58.3-71.2c1.1-1.3,2.1-2.7,3.2-4.2
		c-31.1,0-61.6,0-92.8,0c1.3-1.5,2.2-2.6,3.3-3.6c20.1-18.8,27.2-42.6,25.5-69.3c-1.6-25.9-11.4-47.5-34.3-61.6
		c-15.9-9.8-33.5-12.4-51.9-10.8c-4.4,0.4-8.8,0.9-13.4,1.4c0.2-1,0.1-1.5,0.3-2c11.5-26.4,23.1-52.8,34.5-79.2c1.2-2.8,3-3.1,5.5-3
		c12.7,0.1,25.3-0.1,38,0.1c3.6,0.1,5.2-1.2,6.6-4.4c7.7-18.2,15.7-36.4,23.6-54.6c0.6-1.4,1.1-2.9,1.9-5.1c-15.8,0-30.7,0-45,0
		c13-31.6,25.9-63,39.2-95.6c-2.5,0.6-3.1,0.6-3.7,0.9c-29,11.3-58,22.6-87,33.9c-1.4,0.6-3,1.7-3.7,3
		c-10.4,20.5-25.9,37.1-40.7,54.2c-1.1,1.2-3,2.3-4.6,2.4c-14.5,0.8-29.1,1.3-44.8,2c3.5-7.3,6.6-13.1,9.3-19.2
		c13.5-30.5-1.2-63.6-31.7-71.6c-40.1-10.5-81,28.2-73.2,69.5c1.1,5.8,3.2,11.5,5,17.5c-8.8,0-17.6,0.4-26.4-0.1
		c-18.5-1.1-36.6,1-54.4,5.9c-38.1,10.4-70.4,31.2-100.2,56.3c-25.3,21.3-46.3,46.5-66.6,72.3c-1.3,1.6-2.7,3.1-4,4.7
		c-0.7-1.7-0.6-2.8-0.2-3.8c4.6-12,9.4-23.9,13.7-35.9c9.7-26.6,19.5-53.3,18.4-82.3c-0.1-1.5,1.7-3.5,3.1-4.5
		c10.5-7.4,18.5-16.7,23.6-28.5c12.2-28.4,0-60-27.4-69.6c-20.7-7.3-39.4-2.2-56.1,11.2c-4.7,3.7-9,7.9-13.6,11.8
		c-1.1,1-2.4,1.8-3.7,2.7c1.6-8.4,4.1-16.1,6.6-23.8c7.2-22.9,13.9-45.9,13.4-70.3c-0.1-2.8-0.6-4.5-3.5-5.7
		c-9.5-3.9-18.9-8.2-28.5-12.1c-1.7-0.7-4.2-0.6-6,0.1c-16.3,6.8-32.3,14.3-48.7,20.8c-21.8,8.7-43.9,16.7-65.8,25
		c-13.5,5.1-20.5,16.5-18.3,30.2c0.6,3.7,1.7,7.5,3.3,11c0.8,1.8,2.7,3.7,4.5,4.4c5.5,1.9,11.2,3.1,16.8,4.7
		c10.4,2.8,20.8,5.6,31.9,8.6c-21.6,51.9-43,103.2-64.4,154.6c-0.6-0.1-1.2-0.3-1.8-0.4c-1.5-5.2-2.9-10.5-4.4-15.7
		c-5.2-18.3-15.1-33.2-30.7-44.3c-16-11.4-34.4-16.5-53.6-18.8c-4.5-0.5-9-1-14.4-1.6c3.2-3.5,5.7-6.1,8.1-8.8
		c18.3-20,31.8-42.6,37.2-69.6c8.4-42.3-8-78.6-44.7-97.7c-7.6-4-15.9-7.1-24.2-9.2c-32.2-8-64.2-4.8-95.9,3.4
		c-43.1,11.3-79.4,34.7-112.1,64.2c-31.7,28.6-59,61.1-84.5,95.2c-1.2,1.6-2.7,3.1-4.9,5.6c-1.6-5.1-2.5-9.1-4-12.8
		c-1.5-3.8-0.8-6.6,1.7-9.9c39.2-51,78.3-102,117.4-153.1C874.6,41.1,875.7,39.6,877.5,37.2z"/>
	<path class="st0" d="M1226.2,128.9c38.9-15.5,77.9-31,117.9-46.9c-1.9,10.2-3.2,20.4-5.7,30.4c-9.4,37.1-23.9,72.3-38.9,107.4
		c-11.4,26.8-23.2,53.5-34.8,80.2c-0.7,1.6-1.3,3.3-2.6,6.4c45.8-18.2,90.2-36,135.6-54c-0.7,6-1,12.3-2.2,18.3
		c-5.9,28.4-16.8,55.1-28.1,81.6c-15.7,36.9-31.9,73.6-47.7,110.5c-2.5,5.8-4.4,11.9-6.1,17.9c-0.8,2.8-0.9,5.9-0.5,8.8
		c0.4,2.7,2,5,5.5,4.4c20.2-3.2,40.4-6.3,60.8-9.5c1-7.6,1.6-16.2,3.3-24.7c6.5-33,22-62.1,41.6-88.9
		c30.7-42.1,68.2-76.6,115.4-99.5c25.3-12.3,52.1-18.3,81-15.5c-0.7,1.6-1.1,2.9-1.8,4.1c-14,26.1-28.1,52.2-41.9,78.4
		c-3.3,6.3-8.4,2.3-13.7,4.1c2-4.6,3.7-8,5-11.5c2.8-7.5,5.9-14.9,8.1-22.5c2.9-10-0.2-15-10.4-16.9c-21.5-3.9-41.6,0.3-59.4,13
		c-7.7,5.5-14.9,12-20.9,19.2c-30.1,36-50.8,76.8-61.2,122.6c-2.6,11.4-3.5,23-1,34.7c0.7,3.3,2.2,4.4,5.6,4.8
		c19.5,2.1,39,4.4,58.5,7c3.7,0.5,6.7,0.1,9.8-1.9c26.7-16.7,46.3-39.9,61.5-67.1c5.4-9.6,10.3-19.4,15.4-29.1
		c0.5-0.1,1-0.1,1.5-0.2c0.8,4.4,2.3,8.7,2.4,13.1c0.2,8.9-3,17-7.1,24.7c-8.2,15.5-19.7,28.5-32.1,40.7
		c-20.9,20.5-43.4,39-70.2,51.4c-15.5,7.1-31.6,11.4-48.8,10.6c-21-0.9-32.9-10.4-38.3-30.7c-0.2-0.8-0.5-1.5-1-2.8
		c-39.6,6.5-77.7,17.9-115,34.3c1.3-9.1,2.5-17.7,3.7-26.4c4-30,16.1-57.2,28-84.6c15.3-35.1,30.7-70.1,45.9-105.3
		c2.6-6.1,4.5-12.6,5.7-19.1c1.5-8.5-2.7-12.7-11.1-10.8c-8.6,1.9-16.9,4.9-25.2,8c-17.6,6.5-35.2,13.4-52.7,20.3
		c-1.9,0.8-4.2,2.5-4.9,4.3c-17.3,44-34.5,88-51.6,132.1c-0.7,1.8-1.2,3.8-1.7,5.5c17.5,4.1,34.8,8.1,52.4,12.2
		c-2.1,7.8-3.5,14.4-9.9,18.9c-15.1,10.6-29.7,21.9-45.2,32c-5.7,3.7-12.8,5.7-19.6,7.1c-13.1,2.7-22.3-3.6-23.5-17
		c-0.9-10,0.7-20.2,1.2-30.3c0.1-1.5,0.5-2.9,0.9-4.8c-1.7-0.1-3.2-0.4-4.6-0.3c-19.8,1.3-39.5,2.6-59.3,4.1c-2,0.2-4.1,1.8-5.9,3.2
		c-11.8,9.1-23.2,19-35.5,27.4c-10.5,7.2-22.7,11.2-35.8,11.2c-14.5,0-20.3-6.1-19.7-20.6c0-0.5,0-1,0-1.5c0.2-5-1.3-11.3,1.2-14.6
		c2.6-3.5,9-4.4,13.8-6.1c24.9-8.8,50.3-15.3,76.4-19.3c2-0.3,4.5-1.7,5.6-3.3c19.6-30.1,33.7-62.4,36.8-98.6
		c0.7-8.2,0-16.8-1.9-24.8c-5.3-22.7-21.9-33.1-43.6-36.9c-5.2-0.9-10.6-0.9-15.9-1.6c-3.5-0.5-4.9,1-6.1,4.1
		c-15.3,40.3-30.7,80.6-46.1,120.9c-15.3,39.8-30.7,79.5-45.9,119.3c-1.2,3.1-2.8,3.9-5.9,3.8c-8.1-0.2-16.3-0.1-25-0.1
		c4.3,13.8,7.7,27.2,12.6,40c3.2,8.3,1.9,14.2-3.5,21.1c-12.2,15.8-23.5,32.3-35.3,48.9c17.1,22.4,34.2,44.7,51.9,67.8
		c2.4-6.7,4.7-12.6,6.5-18.7c0.4-1.3-0.9-3.3-1.9-4.6c-9.4-12.1-19-24.1-28.5-36.1c-1-1.2-1.9-2.6-3.4-4.7c9.2,0,17.4-0.2,25.7,0.1
		c1.4,0.1,3,1.9,4,3.2c6,7.9,11.9,16,18.4,24.7c2.7-8.2,5.3-15.5,7.3-22.9c1.1-4.1,3-5.3,7.2-5.3c131,0.1,262,0.1,393,0.1
		c148.7,0,297.3,0,446-0.1c5.2,0,7.3,1.4,8.1,6.5c0.9,6.1,2.8,12,3.8,18.1c0.7,4.2,2.1,7.3,7.4,8c2.8-8.6,6.1-17.5,8.6-26.6
		c1.3-4.9,3.6-6.2,8.3-5.9c6.6,0.4,13.3,0.1,20.6,0.1c-0.7,2.3-1.2,4-1.8,5.6c-4.3,11.7-8.5,23.5-13,35.1c-1.2,3.2-1,5.3,1.4,7.9
		c10.2,11.2,20.1,22.7,31.1,35.1c-4.9,0-8.8-0.5-12.5,0.1c-11.6,1.9-19.9-2.2-26.4-11.9c-5-7.5-11.3-14.1-17.6-21.8
		c2.6,11.5,5.1,22.3,7.6,33.4c-8.2,0-15.9,0-24.1,0c-2.4-10.4-4.8-20.9-7.2-31.4c-3-13.1-6.1-26.3-8.9-39.5
		c-0.7-3.2-1.9-4.7-5.2-4.3c-1.1,0.2-2.3,0-3.5,0c-263.5,0-527,0-790.5-0.1c-5.3,0-8,1.4-9.6,6.6c-2.5,7.9-5.8,15.6-9,23.3
		c-1.1,2.7-0.7,4.5,1.1,6.7c9.1,11.1,18.1,22.2,27.1,33.4c1,1.2,1.9,2.6,3.4,4.6c-9.2,0-17.4,0.1-25.7-0.1c-1.4,0-3.1-1.7-4.1-3
		c-5.4-7.3-10.7-14.8-16.7-23.2c-2.2,7.5-4.4,14.2-6,21c-1,4-2.6,5.5-7,5.5c-40-0.3-80-0.2-120-0.3c-1.5,0-3,0-5.1,0
		c0.8-2.2,1.3-3.8,1.9-5.5c44.6-114.1,89.2-228.3,133.6-342.4c1.6-4.1,3.6-6.2,8.1-7.3c11.9-2.8,21.4-9.5,26.5-20.9
		c9.9-22.3,19.5-44.8,29.6-68.1c-3.1-0.3-4.9-0.6-6.6-0.5c-10.3,0.3-20.6,0.7-31,0.9c-4,0.1-6,1.7-7.5,5.5
		c-33.4,83.4-84.2,154.4-152.6,212.7c-10.9,9.3-22.7,17.5-34.1,26.1c-1.4,1.1-3,1.9-5,3.2c-38-67.4-63.4-139.3-85.7-213.5
		c-1.8,2.2-3.1,3.8-4.4,5.4c-23,28.1-45,57.1-69.1,84.2c-31.6,35.6-68.2,65.6-111.4,86.6c-53.9,26.2-110,33.5-168.1,17.6
		c-71.1-19.4-116.8-79.2-118.4-152.9c-0.6-27.4,3-54,15.9-78.5c22.8-43.3,59.2-67.2,107.5-72.4c53.6-5.8,101.5,9.1,144.3,41.4
		c33.6,25.4,62.3,55.8,89.8,87.3c4,4.6,8.1,9.3,12.1,14c0.2,0.2,0.6,0.3,1,0.6c12-13.3,17.5-28.5,12.9-46.4
		c-3-11.7-10.5-20.2-21.7-23.6c-12.3-3.8-25.2-5.8-37.9-8.4c-2.6-0.5-5.3-0.5-8.5-0.8c0.6-1,1-1.7,1.4-2.3
		c6.7-9.5,13.5-19,19.9-28.6c1.8-2.8,3.1-4.1,6.9-3.7c31,3.2,62,6,93,8.9c3.9,0.4,8,0,12.5,0c-0.9-3-1.6-5.9-2.4-8.7
		c-10.2-34.8-20.7-69.6-34.9-103.1c-2.9-6.9-6.7-13.4-10.6-19.8c-1.7-2.8-4.3-5.1-6.9-7.1c-5.2-4.1-9.4-4.4-14.5-0.2
		c-10.1,8.2-19.7,16.9-29.5,25.4c-2.4,2.1-4.6,4.3-7.5,6.1c0.6-1,1.2-2,1.9-2.9c19.7-25,39.3-50,59-75c1-1.3,2-2.6,3.2-3.9
		c5.4-5.7,11.1-6.2,16.4-0.3c4.1,4.5,8,9.6,10.2,15.2c7.2,18.2,14.3,36.6,20.1,55.3c11.9,38.5,22.8,77.3,34.3,115.9
		c0.7,2.4,0.5,6.3,4.5,6.1c4.7-0.2,9.5,2.9,13.9-2.8c21.3-27.5,42.4-55.3,65-81.8c25.7-30.2,54.6-57.1,89.2-77.1
		c35.2-20.4,73.1-30,113.9-28c12.8,0.6,25.1,3.3,36.7,8.8c26.1,12.6,38.2,35.6,34.3,64.2c-3.8,27.6-18,49.4-37.4,68.4
		c-26.3,25.9-58.4,42.2-92.7,54.6c-38.1,13.8-77.6,21.9-118,24.8c-29.7,2.2-59.6,2.2-89.4,3.1c-2.3,0.1-4.6,0-7.6,0
		c4,12.5,7.6,24.4,11.5,36.2c13.2,40.4,27.7,80.3,45,119.1c4.5,10.2,9.6,20.1,18,28.1c0.8-0.4,1.4-0.7,1.8-1.1
		c45.7-40.9,88.2-84.7,122.8-135.7c15.2-22.3,27.9-45.8,36.1-71.5c1.4-4.4,3.4-6.4,8.3-6.5c26.5-0.7,52.9-2.1,79.4-2.6
		c13.9-0.3,27.6,2,40.6,7.1c23.6,9.3,35.5,27.2,36.9,52.2c1.7,30-6.2,58.1-18.4,85.1c-7.8,17.2-17.4,33.4-28.8,48.4
		c-0.6,0.8-1.1,1.6-2.1,3c3.4-0.3,6.2-0.6,8.9-0.6c12.8-0.3,25.7-0.5,38.5-1c1.7-0.1,4.3-1.3,4.8-2.6
		c31.1-86.2,68.6-169.8,103.1-254.6c7.8-19.3,14.9-38.8,22.3-58.3c1.1-2.9,1.9-6.1,2.5-9.2c1.6-8.3-2.8-13.1-11.2-11.7
		c-6,1-12,2.9-17.9,4.6c-6.1,1.8-12.3,3.4-18,6.1C1238.2,135,1232,133.2,1226.2,128.9z M611,402.4c-2.9-3.4-5.3-6.4-7.9-9.2
		c-17.6-19.8-34.9-39.9-53-59.2c-23.5-24.9-48.4-48.3-77.6-66.5c-31.2-19.5-64.7-30-102-26.6c-42.5,3.9-77.5,32.7-88.1,73.6
		c-6.4,24.4-5.4,49,1.3,73.1c12.1,43.8,41.1,73.6,80.9,93.4c41.5,20.6,85.8,22.7,130.9,16.4c48-6.6,89.3-27.7,125.6-59.3
		c36.4-31.7,66.9-68.7,96.7-106.3c8.5-10.7,11.9-20.1,5.5-32.5c-1.5-2.9-2.7-4.2-6-4.4c-11.2-0.4-22.3-1-33.4-1.8
		c-12.4-0.8-24.9-1.8-38-2.8c1.7,3,3.1,5.6,4.6,8.1c12.2,20.5,11.6,40.7-0.9,60.9C639.1,375.8,625.7,389.3,611,402.4z M778.7,263.8
		c1.4,0.2,2.1,0.4,2.7,0.4c41,1.8,81.9,3.8,122.9,0.6c33-2.5,65.4-8.3,96.3-21c19.9-8.1,38.4-18.5,53.5-34.2
		c12.1-12.6,19.8-27.4,22.3-44.9c4.3-30.1-8.7-51.9-37.5-61.8c-19.6-6.7-39.7-6.4-59.8-3.5c-34.3,4.9-63.9,20.2-90.2,42.2
		C846.6,177.1,812.8,220,778.7,263.8z M1196.9,479.7c-0.2,2.9-0.5,5-0.4,7.2c0.4,9,5.7,13.2,14.3,11c8.9-2.3,16.1-7.9,23.3-13.7
		c-9.4-1.7-18.6-2.8-27.8-3.9C1203.4,479.9,1200.5,479.9,1196.9,479.7z M1017.5,498.6c14,8.8,40.5,0.5,51.8-13.3
		C1052,489.7,1034.8,494.2,1017.5,498.6z M1477.8,498.8c-14.6-0.8-29.2-1.5-43.8-2.3C1443.3,505.5,1466,506.5,1477.8,498.8z"/>
	<path class="st0" d="M1699.1,499.7c-39.7,6.8-77.1,18.6-114.2,35.8c0.9-8.9,1.5-16.9,2.6-24.9c3.6-28.5,14.7-54.5,26-80.5
		c15.6-35.9,31.5-71.6,47-107.5c2.9-6.8,5.1-14.1,6.6-21.4c1.8-8.6-2.5-13.1-11.2-11.1c-8.1,1.8-15.9,4.9-23.8,7.4
		c-1.2,0.4-2.5,0.9-4.2,1.5c-1.1-3.5-2.2-6.7-3.1-9.6c30.2-12.3,60.1-24.5,91-37.2c-0.8,6.7-1.1,13.1-2.4,19.3
		c-6.2,29-17.4,56.3-29,83.4c-15.5,36.3-31.3,72.4-46.9,108.7c-2.4,5.6-4.2,11.6-5.9,17.5c-0.7,2.3-0.9,4.9-0.8,7.4
		c0.2,3.9,1.9,5.6,6.5,4.9c21-3.3,42.1-6.2,63.2-9.4c1.7-0.3,4.1-1.6,4.7-3.1c26.5-61.6,52.9-123.3,79.2-185
		c3.7-8.7,7.3-17.4,11.3-26.8c-14.5,0-28.2,0-42,0c2.4-9.5,2.7-9.6,11.4-10c6.3-0.3,12.6-0.9,18.9-1.9c9.8-1.5,17.6-6.3,22.2-15.3
		c6.2-12.3,12.2-24.7,18.1-37.3c1.4-3,3.1-4.7,6.1-5.9c13.5-5.1,27-10.4,41.3-16c-11.5,25.7-22.6,50.6-34.1,76.4c16.1,0,31,0,46.5,0
		c-1.1,2.6-2.1,4.5-2.7,6.6c-0.8,2.6-2.4,3.5-5.2,3.4c-11.7-0.2-23.3,0.3-35-0.2c-5.9-0.3-8.7,1.8-11,7.2
		c-20.9,48.1-42.3,96-63.1,144.1c-8,18.5-15,37.3-22.4,56.1c-0.8,2.1-1.2,4.4-1.8,6.9c16.6,1.8,32.9,3.5,49.7,5.2
		c-6.4-12-7.6-24.8-6.6-37.9c2-27.1,19.5-44.2,46.6-45.1c6-0.2,12.1,0.1,17.9,1.2c18.6,3.7,30.5,15,35.1,33.4c3,11.8,3,23.8,0,35.6
		c-5,20-19.4,32.2-40.6,34.3c-16,1.6-31.3-0.4-43.7-10.9c-12.7,6.3-24.7,13.3-37.4,18.4c-11.2,4.5-23.1,7.4-34.9,10
		c-4.9,1.1-10.3,0.4-15.4-0.4c-11.3-1.8-16.8-9.7-15.5-21.1C1698.4,504,1698.7,502.3,1699.1,499.7z M1863.1,488.2
		c3.1-5.5,6.2-9.7,7.9-14.3c4-10.8,3.7-21.9,0.2-32.8c-3.7-11.3-11.4-18.5-23-21.4c-8.1-2-16.2-2-24.2,0.3
		c-10.5,2.9-17.9,9.5-21.5,19.8c-4.1,11.5-4.3,23.2-0.3,34.8c6.4,18.2,32.1,28.1,48.6,18.8c-3-6.3-6-12.6-9-18.9
		c-3.5-7.3-3.5-7.3-12.8-5.8c0,4.9,0,10,0,15c-4.5,0-8.4,0-12.4,0c0-17.7,0-35.1,0-52.6c9.2,0,18-0.4,26.8,0.1
		c9.2,0.5,15.1,7.1,15.7,16.4c0.5,7.3-1.7,13.4-7.9,17.9C1855,472.7,1858.7,479.7,1863.1,488.2z M1780.4,495.5
		c-12.3,0-24.7,0-37.4,0c1.5,4.7,4.9,7,9.5,7.6C1762.6,504.6,1771.6,500.9,1780.4,495.5z M1829.4,456.3c4,0,7.8,0.2,11.6-0.1
		c3.8-0.3,5.3-3,5.4-6.5c0.1-3.7-1.1-6.8-5.2-7.1c-3.9-0.3-7.8-0.1-11.7-0.1C1829.4,447.4,1829.4,451.7,1829.4,456.3z"/>
	<path class="st0" d="M716,387.8c24.5,74.1,54.1,144.5,96.7,209.6c3.6-8.6,7-16.9,10.6-25.2c0.8-1.7,1.9-3.7,3.4-4.7
		c33.3-21.5,62.2-48,89.5-76.4c2.1-2.2,4.2-4.3,6.3-6.4c0.2-0.2,0.6-0.3,1.7-1c-28.5,80-59,158.4-92,236.4
		c-38.8-58.2-77.6-116.4-116.4-174.5c-0.3,0.1-0.6,0.3-0.9,0.4c17,52.2,34.1,104.4,51.3,157.1c-3.4,1.5-6.7,2.9-10.6,4.6
		c-39.4-78.1-78.6-155.9-118-233.9C666.5,448,691.9,419.4,716,387.8z M652.5,477.5c25,49.5,50.4,99.9,75.7,150.2
		c0.3-0.1,0.7-0.3,1-0.4c-17.2-52.5-34.3-105.1-51.5-157.6c0.3-0.1,0.6-0.3,0.9-0.4c50.2,75.2,100.4,150.5,151.6,227.2
		c22.2-56.4,43.9-111.4,65.6-166.5c-0.5-0.3-0.9-0.5-1.4-0.8c-1.2,1-2.4,2-3.6,3c-11.3,9.4-22.4,18.9-33.8,28.1
		c-7.8,6.3-17.6,11-23.5,18.8c-6,7.8-8.3,18.4-12.2,27.7c-2.3,5.4-4.6,10.9-6.9,16.4c-42.6-66.5-77.6-136-101.8-210.4
		C692.2,434.6,672.5,455.9,652.5,477.5z"/>
	<path class="st0" d="M306.5,530.6c12.6,6.3,24.7,12.3,37.1,18.4c-0.5,0.7-1.2,1.9-2,3c-48.8,61.8-97.6,123.6-146.4,185.5
		c-2,2.6-4,3.8-7.4,3.8c-14-0.2-28-0.1-42-0.1c-1.4,0-2.9,0-5.5,0C196.2,670.3,251.5,600.3,306.5,530.6z"/>
	<path class="st0" d="M242.7,740.6c1.1-1.5,2-2.8,3-4.1C290.8,679.2,336,622,381.2,564.7c2.2-2.8,4.3-3.5,7.9-3.2
		c14.6,1.3,29.2,2,43.9,3c-0.4,0.6-1,1.6-1.7,2.6c-45.8,57-91.5,114-137.4,170.9c-1.2,1.5-3.4,3-5.1,3.1
		c-14.8,0.2-29.6,0.1-44.5,0.1C243.9,741.1,243.5,740.8,242.7,740.6z"/>
	<path class="st0" d="M987.4,616.7c-6.6,9.7-12.5,18.6-18.7,27.2c-1.2,1.7-3.9,3.1-5.9,3.2c-7.5,0.4-14.9,0.1-23.5,0.1
		c1.4-2.1,2.4-3.6,3.4-5c9.6-13.2,19.1-26.5,28.8-39.6c1.8-2.4,2.1-4.4,1.2-7.3c-3.7-11-7.3-22.1-10.8-33.2c-0.5-1.6-0.9-3.1-1.5-5
		c8.7,0,17,0,25.5,0c2.5,9.2,4.9,18.3,7.6,28.6c5.2-7.9,10.3-14.9,14.5-22.3c2.9-5.1,6.4-7.2,12.3-6.6c6.2,0.6,12.5,0.1,19.9,0.1
		c-3.5,4.7-6.3,8.5-9.1,12.3c-7.3,9.9-14.7,19.8-22,29.7c-0.9,1.2-1.9,3.2-1.5,4.3c4.9,14.3,10,28.5,15.4,43.7
		c1.3-2.2,2.1-3.6,2.8-5c13.7-27,27.5-54,41.1-81c1.5-2.9,3-4.2,6.4-4.1c8.8,0.3,17.6,0.1,26.8,0.1c2.5,30.1,5,59.8,7.6,89.9
		c-7.7,0-15.3,0-23.5,0c-0.2-5.1-0.5-10.4-0.8-16.4c-8.8,0-17.6,0-26.3,0.1c-0.6,0-1.3,0.9-1.8,1.5c-0.5,0.6-0.9,1.4-1.1,2.2
		c-2.6,11.5-9.7,14.6-20.9,13.3c-10.5-1.1-21.3-0.5-31.9-0.1c-4.3,0.2-5.7-1.4-6.7-5.2C992.7,633.9,990.1,625.8,987.4,616.7z
		 M1082.3,575.9c-0.4-0.1-0.8-0.2-1.2-0.3c-5.3,11.6-10.5,23.3-15.8,35.1c6.3,0,11.9,0,17,0C1082.3,598.7,1082.3,587.3,1082.3,575.9
		z"/>
	<path class="st0" d="M300.4,208.2c-10.4,8.9-20.5,17.5-31.1,26.5C227.4,179.1,185,123,142.2,66.3c1.8-0.2,2.9-0.3,3.9-0.3
		c14.3,0,28.6-0.1,43,0.1c2,0,4.7,1.1,5.8,2.6C230.2,115.1,265.4,161.8,300.4,208.2z"/>
	<path class="st0" d="M382.9,184.6c-11.4,1.4-22.9,1.7-33.7,4.6c-9.2,2.4-13.9,0-19.4-7.4c-27.5-37.3-55.6-74.1-83.5-111
		c-1-1.3-1.9-2.6-3.2-4.5c1.8-0.1,3-0.3,4.3-0.3c14.2,0,28.3-0.1,42.5,0.1c2,0,4.6,1.1,5.8,2.6c28.6,37.7,57.1,75.5,85.6,113.2
		C381.9,182.8,382.4,183.8,382.9,184.6z"/>
	<path class="st0" d="M1373.9,585.4c-4,20.6-7.9,41-11.8,61.6c-7.6,0-14.5,0-21.9,0c6.4-30.1,12.6-59.9,19-90
		c8.7,0,17.2-0.2,25.6,0.2c1.3,0.1,3.2,2.4,3.7,4.1c5.2,17.4,10.3,34.8,15.4,52.2c0.3,0.9,0.6,1.8,1.1,3.1c4-20.1,8-39.7,11.9-59.4
		c7.4,0,14.2,0,21.7,0c-1.5,7.3-3,14.4-4.5,21.4c-4.5,21.5-9.2,43-13.6,64.5c-0.7,3.3-2,4.3-5.2,4.2c-6.5-0.2-13-0.3-19.5,0
		c-3.6,0.2-4.8-1.2-5.7-4.5c-4.8-17.8-9.9-35.6-14.9-53.4C1374.7,588.1,1374.2,586.7,1373.9,585.4z"/>
	<path class="st0" d="M1802.8,647.2c-8.9,0-17.6,0.2-26.2-0.2c-1.1,0-2.7-2.5-3.2-4.1c-5.2-18.1-10.3-36.2-15.4-54.3
		c-0.3-1.1-0.7-2.1-1-3c-3.9,20.4-7.8,40.8-11.8,61.4c-7.4,0-14.2,0-21.9,0c6.3-30,12.6-59.9,19-90c8.8,0,17.3-0.2,25.7,0.2
		c1.3,0.1,3.1,2.5,3.6,4.1c5.1,17.1,10.1,34.2,15.1,51.3c0.4,1.2,0.8,2.4,1.4,3.9c4-19.9,7.9-39.4,11.8-59.1c7.4,0,14.4,0,21.8,0
		C1815.5,587.3,1809.2,617.1,1802.8,647.2z"/>
	<path class="st0" d="M1897.9,647.2c-8.8,0-16.8,0.2-24.7-0.2c-1.2-0.1-3-2.2-3.5-3.8c-3.3-10.3-6.3-20.6-9.5-31
		c-4.7,0.8-6.5,3.6-7.2,7.8c-1.4,8-3.1,16-5,23.9c-0.3,1.2-1.8,3.1-2.8,3.1c-7.1,0.3-14.2,0.1-22,0.1c6.4-30.3,12.7-60,19-90
		c8,0,15.7,0,24.2,0c-2.5,11.9-5,23.5-7.5,35.1c0.2,0.1,0.4,0.2,0.6,0.3c3.4-4.8,6.7-9.7,10.1-14.5c6.3-9,12.6-18,19.1-26.8
		c1.2-1.6,3.9-3,6-3.1c8.8-0.3,17.6-0.1,27.5-0.1c-1.6,2-2.6,3.4-3.6,4.8c-11.6,14.2-23.1,28.4-34.8,42.5c-1.9,2.3-2.3,4.2-1.3,7.1
		C1887.6,617.1,1892.6,631.7,1897.9,647.2z"/>
	<path class="st0" d="M1509.9,646.4c3-14.5,6.1-29.1,9.2-43.7c2.9-13.8,6-27.7,8.7-41.5c0.6-3.3,1.9-4.4,5.2-4.3
		c10.5,0.5,21.1-0.2,31.4,1.2c15.1,2,24.9,13,25.5,28.2c0.3,8.2-0.2,16.8-2.2,24.7c-4.9,19.8-17.7,32.7-38.2,35.1
		C1536.6,647.7,1523.4,646.4,1509.9,646.4z M1538.5,626.4c8.8,1.8,16.1-1.4,21.1-9.2c5.5-8.8,7.2-18.6,6-28.8
		c-1.1-9.2-6.6-12.7-16.7-11.1C1545.4,593.6,1541.9,610,1538.5,626.4z"/>
	<path class="st0" d="M1654.2,609.7c5.4,12.5,10.6,24.7,16.1,37.5c-8.6,0-16.4,0.1-24.1-0.2c-1.2,0-2.9-1.9-3.4-3.3
		c-3.3-8.5-6.3-17.2-9.7-25.7c-0.6-1.5-2.4-2.5-3.7-3.7c-0.9,1.3-2.3,2.6-2.7,4c-2,8.4-3.6,16.9-5.6,25.3c-0.3,1.3-2,3.3-3.1,3.3
		c-7,0.3-13.9,0.2-21.7,0.2c6.4-30.2,12.6-59.9,19-90.2c13.8,0.6,27.8-2.1,41.4,2.7c8,2.8,13.2,8.4,14.3,17c1.4,11.4-1,21.6-10.5,29
		C1658.6,607.2,1656.5,608.3,1654.2,609.7z M1631.4,595.9c2.3,0,3.8,0.2,5.2,0c7.3-0.9,11.9-7.7,10.2-14.8c-1-4.1-4-5.6-7.8-5.4
		c-1.4,0-3.6,1.3-3.9,2.4C1633.7,583.7,1632.7,589.6,1631.4,595.9z"/>
	<path class="st0" d="M1322.2,556.9c2.5,30.3,5,60,7.6,90c-7.9,0-15.5,0-24,0c0-4.3-0.1-8.4,0-12.5c0.1-2.8-0.7-4.3-3.9-4.2
		c-7,0.2-14-0.1-21,0.2c-1.4,0.1-3.3,1.4-4,2.6c-2,3.6-3.4,7.6-5.4,11.2c-0.7,1.3-2.5,2.8-3.9,2.8c-7.1,0.3-14.3,0.1-22,0.1
		c0.6-1.6,1-2.8,1.5-3.9c14-27.6,28.1-55.1,42-82.7c1.4-2.8,3-3.8,6.1-3.7C1304,557.1,1312.8,556.9,1322.2,556.9z M1304.1,575.8
		c-0.4,0-0.8-0.1-1.2-0.1c-5.2,11.6-10.5,23.1-15.9,35.1c6.2,0,11.7,0,17.1,0C1304.1,598.9,1304.1,587.3,1304.1,575.8z"/>
	<path class="st0" d="M1467.1,577c-6.5,0-12.7,0-19.5,0c1.5-7,2.8-13.4,4.2-19.9c21.2,0,42,0,63.5,0c-1.5,6.7-2.9,13.1-4.3,19.8
		c-6.5,0-12.8,0-19.6,0c-4.9,23.5-9.8,46.7-14.6,70.1c-8,0-15.8,0-24.2,0C1457.4,623.6,1462.2,600.5,1467.1,577z"/>
	<path class="st0" d="M1260.2,556.9c-1.5,7-2.9,13.3-4.4,19.9c-6.4,0-12.7,0-19.6,0c-2.5,11.7-4.9,23.2-7.3,34.7
		c-2.2,10.6-4.6,21.1-6.5,31.8c-0.6,3.2-1.9,4-4.9,3.9c-6.5-0.2-12.9-0.1-20.1-0.1c4.9-23.6,9.7-46.6,14.5-70.2
		c-6.5,0-12.6,0-19.4,0c1.4-6.5,2.5-12.5,4-18.4c0.2-0.8,2-1.6,3.1-1.6C1219.5,556.9,1239.4,556.9,1260.2,556.9z"/>
	<path class="st0" d="M1146.6,627.7c10.2,0,19.6,0,29.4,0c-1.5,6.8-2.8,12.9-4.1,19.3c-17.8,0-35.4,0-53.6,0
		c6.3-30.1,12.6-59.8,19-89.8c8,0,15.7,0,24.2,0C1156.5,580.5,1151.7,603.5,1146.6,627.7z"/>
	<path class="st0" d="M1792.7,719.6c3-15,5.7-28.4,8.4-42c5.1,0,9.7,0,15,0c-4.4,21.2-8.7,42.1-13.1,63.6c-5.9,0-11.7,0.2-17.5-0.2
		c-1.1-0.1-2.6-2.1-3-3.6c-3.3-11.3-6.4-22.8-9.5-34.1c-0.4-1.6-0.9-3.1-1.6-5.3c-2.8,14.7-5.5,28.7-8.2,42.9c-5.1,0-9.9,0-15.1,0
		c4.4-21.2,8.7-42.1,13.1-63.5c5.9,0,11.5-0.2,17.1,0.2c1.3,0.1,3,2.2,3.5,3.8C1785.4,693.5,1788.8,705.8,1792.7,719.6z"/>
	<path class="st0" d="M1369.8,719.6c3-15,5.7-28.4,8.4-42c5.1,0,9.7,0,15,0c-4.4,21.2-8.7,42.1-13.1,63.6c-5.9,0-11.7,0.2-17.5-0.2
		c-1.1-0.1-2.6-2.2-3-3.6c-3.7-12.9-7.2-25.9-11.1-39.8c-2.9,15-5.6,29-8.3,43.3c-5.1,0-9.9,0-15.1,0c4.4-21.2,8.7-42.1,13.1-63.5
		c5.8,0,11.5-0.2,17.1,0.2c1.3,0.1,3,2.2,3.5,3.8C1362.5,693.5,1365.9,705.8,1369.8,719.6z"/>
	<path class="st0" d="M1659.5,201.4c0-18.6,16.5-34.7,35.1-34.3c14.1,0.3,23.3,9.8,23.1,23.9c-0.3,17.5-17.4,34.1-34.9,33.9
		C1668.2,224.7,1659.5,215.9,1659.5,201.4z"/>
	<path class="st0" d="M1401,167c14.4,0.1,23.7,9.6,23.5,24c-0.3,17.6-17.3,34-34.9,33.9c-14.5-0.1-23.3-9-23.3-23.6
		C1366.4,183,1382.7,166.9,1401,167z"/>
	<path class="st0" d="M1263.7,716.3c0-9,2.2-17.5,7-25.2c7.3-11.7,20.2-17,33.6-14.1c8.9,1.9,15.1,8.6,16.3,18.6
		c1.4,11.9-0.8,23.3-7.7,33.3c-7.6,11.2-21.6,15.8-34.4,11.8C1268.6,737.7,1263.5,729.2,1263.7,716.3z M1280.7,716
		c0.1,4.4-0.2,9,4.7,11.1c4.2,1.9,7.9,0.5,10.8-2.7c1.9-2.1,3.8-4.5,4.5-7c1.5-5.2,2.5-10.6,3.1-16c0.4-4.2-0.5-8.7-5.2-10.3
		c-4.9-1.6-8.7,0.8-11.6,4.7C1282.6,701.8,1281,708.7,1280.7,716z"/>
	<path class="st0" d="M1574.8,703.1c-2.5,7.7-4.2,15.7-7.7,22.9c-6.1,12.2-18.3,17.8-31.7,15.9c-11-1.6-18-8.8-19.1-20.4
		c-1-10.6,1.1-20.6,6.6-29.7c7.3-12,20.2-17.5,33.9-14.6c11.1,2.4,17.2,11.9,16.6,25.6C1573.9,702.8,1574.3,702.9,1574.8,703.1z
		 M1557.3,702.2c-1-4.6-1.1-9.1-6-11.1c-4-1.6-8.7,0.3-12,5c-5.1,7.3-6.9,15.5-6,24.2c0.8,7,7.6,10,13.3,5.7c2.6-1.9,5-4.7,6.1-7.6
		C1554.8,713.2,1555.9,707.7,1557.3,702.2z"/>
	<path class="st0" d="M1600.4,740.3c3-14.4,6-29,9-43.6c1.1-5.2,2.4-10.4,3.2-15.6c0.5-2.8,1.5-4,4.5-3.8c6.5,0.3,13-0.1,19.4,0.6
		c11.2,1.2,18.7,8.4,19,19.5c0.3,7.6-0.7,15.7-3,23c-3.5,11.1-11.9,18.4-23.5,19.7C1619.7,741.2,1610.2,740.3,1600.4,740.3z
		 M1620.1,726.6c6.3,1.2,10.7-1.1,14-5.9c4.6-6.6,5.6-14.2,4.6-22c-0.6-4.4-3.4-7.3-8.1-7.3c-1.3,0-3.3,1.5-3.6,2.7
		C1624.5,704.8,1622.4,715.6,1620.1,726.6z"/>
	<path class="st0" d="M1711.3,741.2c-5.8,0-10.8,0.2-15.8-0.1c-1.3-0.1-3-1.7-3.5-3.1c-2.3-5.5-4.1-11.2-6.2-16.8
		c-0.5-1.2-1.7-2.1-2.6-3.1c-0.7,1.1-1.8,2.2-2.1,3.4c-1.5,6.1-2.7,12.3-4,18.5c-0.1,0.3-0.3,0.5-0.6,1c-5.2,0-10.4,0-16.3,0
		c4.4-21.2,8.7-42.2,13.2-64c8.5,0.4,17,0.3,25.3,1.4c6.7,0.9,11.8,5,13,12.1c1.4,8.2-0.2,15.6-7,21.2c-1.3,1-2.7,1.9-4.4,3.1
		C1703.8,723.3,1707.4,731.8,1711.3,741.2z M1684.6,704.3c7.4,1,12.3-3.8,10.3-9.9c-0.6-1.7-3.1-2.8-5-3.8c-0.6-0.3-2.6,0.9-2.8,1.7
		C1686.1,696.3,1685.4,700.3,1684.6,704.3z"/>
	<path class="st0" d="M1087.7,714.8c3.6,8.7,7.2,17.2,11.1,26.4c-5.9,0-11.1,0.2-16.2-0.1c-1.1-0.1-2.7-1.7-3.2-2.9
		c-2-5.1-3.7-10.3-5.7-15.4c-0.7-1.7-2-3.1-3.1-4.6c-0.9,1.6-2.1,3.1-2.5,4.8c-1.2,5-2,10.1-3.3,15.1c-0.3,1.2-1.8,3-2.9,3.1
		c-4.6,0.3-9.2,0.1-14.5,0.1c2.2-10.8,4.3-21,6.4-31.3c2-9.6,4.1-19.2,5.9-28.8c0.5-2.9,1.7-3.9,4.6-3.8c6.1,0.3,12.3,0,18.4,0.6
		c9,0.9,14.4,5.2,16.1,11.9c2.1,8.8-1,17.8-7.8,22.7C1090.1,713.2,1089,713.9,1087.7,714.8z M1072,704.3c6.8,1.1,11.4-2.8,10.7-8.8
		c-0.3-3.1-2.1-4.7-5.2-5c-3.3-0.4-3.2,2.1-3.6,4.2C1073.3,697.9,1072.7,701.1,1072,704.3z"/>
	<path class="st0" d="M1721.9,557.3c-6.4,30.2-12.6,59.8-19,89.6c-8.1,0-16,0-24.6,0c6.3-30,12.6-59.6,18.9-89.6
		C1705.4,557.3,1713.5,557.3,1721.9,557.3z"/>
	<path class="st0" d="M1147,741.2c3.1-6.2,5.8-11.7,8.5-17.2c7.1-14.3,14.3-28.6,21.3-42.9c1.4-2.8,3-3.9,6.1-3.8
		c5.6,0.2,11.2,0.1,17.4,0.1c1.8,21.4,3.5,42.2,5.2,63.5c-5.4,0-10.5,0-16.1,0c-0.3-3.6-0.5-7.3-0.8-11.6c-5.8,0-11.5-0.2-17,0.1
		c-1.1,0.1-2.8,1.9-3.1,3.1c-1.8,7.5-6.5,10-13.8,8.7C1152.4,740.8,1150.1,741.2,1147,741.2z M1176,715.3c4.5,0,8.1,0,11.3,0
		c0-8,0-15.7,0-23.5c-0.3,0-0.6,0-0.9,0C1183.1,699.4,1179.7,707.1,1176,715.3z"/>
	<path class="st0" d="M1124.2,727.1c6.8,0,13.3,0,20.2,0c-0.9,4.3-1.5,8-2.4,11.7c-0.2,0.9-1.7,2.2-2.5,2.2
		c-11.4,0.1-22.9,0.1-35,0.1c2.2-10.9,4.4-21.3,6.5-31.7c2-9.6,3.9-19.2,6.1-28.8c0.3-1.3,1.8-3.2,2.7-3.2
		c11.4-0.2,22.9-0.1,34.9-0.1c-0.9,4.8-1.7,9-2.6,13.9c-4.2,0-8.3,0-12.4,0c-8.9,0-8.9,0-9.5,9.9c5.9,0,11.8,0,18.3,0
		c-0.9,4.4-1.5,8.1-2.6,11.7c-0.3,1-2,2-3.2,2.1c-3.5,0.3-7,0.5-10.5,0c-4.8-0.7-6.6,1.4-6.9,5.8
		C1125.1,722.7,1124.6,724.6,1124.2,727.1z"/>
	<path class="st0" d="M1260.1,681.3c-1.9,4.2-3.7,8.3-5.5,12.3c-3.7-1.1-7.1-2.7-10.6-3c-2.3-0.2-6.2,0.8-6.7,2.3
		c-0.7,2,0.5,5.3,1.9,7.4c1.5,2.3,4.2,3.7,6.3,5.6c7.1,6.1,9.2,13.7,6.6,22.5c-2.5,8.4-9,11.9-17,13.3c-1.3,0.2-2.6,0.3-4,0.3
		c-16.1,0.6-19-2.4-17.7-18.8c3.4,1.3,6.7,2.8,10.2,3.7c2.4,0.7,4.9,1,7.4,0.9c4.9-0.4,6.8-4.8,3.7-8.6c-1.9-2.3-4.3-4.1-6.6-6.1
		c-7.8-7-10.4-15.2-7.2-23.7c3.5-9.2,10.9-12.6,20-13C1247.5,676.2,1254,677.4,1260.1,681.3z"/>
	<path class="st0" d="M1394.6,723.5c5.2,1.6,9.7,3.2,14.3,4.2c3.1,0.7,7.2,0.8,7.9-3c0.5-2.3-1.3-5.5-3-7.6c-2.3-3-5.8-5.1-8.2-8
		c-10-12.3-3.5-29.5,12.1-32.2c8.2-1.4,16.1-0.2,23.8,4.3c-2,4.4-3.8,8.4-5.5,12.4c-4-1.2-7.6-2.7-11.3-3.1c-2.1-0.2-5.4,1-6.2,2.5
		c-0.8,1.6,0.2,4.9,1.5,6.6c1.8,2.5,4.6,4.3,7,6.3c6.9,5.9,9,13.5,6.6,22.1c-2.3,8.4-8.7,12.7-16.8,13.4c-5.8,0.5-11.8-0.6-17.7-1.4
		c-3.4-0.4-5-2.7-4.6-6.4C1394.9,730.4,1394.6,727,1394.6,723.5z"/>
	<path class="st0" d="M1500.4,691.5c-3.2,15.4-6.3,30.2-9.1,45c-0.7,3.7-2.1,5.1-5.8,4.8c-3.8-0.3-7.6-0.1-12-0.1
		c3.4-16.7,6.6-32.8,10-49.6c-4.6,0-8.7,0-13.5,0c1.1-5.1,2.1-9.6,3-14c14.8,0,29,0,43.9,0c-1,4.7-1.9,9-3,13.9
		C1509.4,691.5,1505,691.5,1500.4,691.5z"/>
	<path class="st0" d="M1733.9,741c-5.8,0-11.1,0-17,0c4.4-21.4,8.8-42.4,13.1-63.5c5.8,0,11.1,0,17,0
		C1742.7,698.7,1738.3,719.7,1733.9,741z"/>
</g>
</svg>
